/* XPM */
static char *chest_full_open_anim_f2_resized[] = {
/* columns rows colors chars-per-pixel */
"30 30 198 2 ",
"   c None",
".  c #14161C",
"X  c #18171C",
"o  c #11181D",
"O  c #1D211D",
"+  c #2C231E",
"@  c #34271F",
"#  c #1C1E21",
"$  c #271C23",
"%  c #3A1F28",
"&  c #1E2122",
"*  c #212222",
"=  c #292423",
"-  c #332225",
";  c #3A2625",
":  c #332922",
">  c #3F2B23",
",  c #383525",
"<  c #2E312E",
"1  c #421E29",
"2  c #422329",
"3  c #482927",
"4  c #57232D",
"5  c #5A242D",
"6  c #572B29",
"7  c #4E3223",
"8  c #483825",
"9  c #523422",
"0  c #523B26",
"q  c #5A3C25",
"w  c #463E32",
"e  c #6B292E",
"r  c #6C262F",
"t  c #7F2F22",
"y  c #752E2D",
"u  c #69372B",
"i  c #6A3A2D",
"p  c #74302D",
"a  c #7A332D",
"s  c #7C382C",
"d  c #743D26",
"f  c #713130",
"g  c #753930",
"h  c #7C3C31",
"j  c #364029",
"k  c #5A4226",
"l  c #594A2B",
"z  c #434335",
"x  c #445F25",
"c  c #6C4726",
"v  c #6A4926",
"b  c #614722",
"n  c #774D2A",
"m  c #6A5E2C",
"M  c #7B4431",
"N  c #7C642F",
"B  c #474542",
"V  c #494746",
"C  c #52544E",
"Z  c #77424E",
"A  c #71645A",
"S  c #676769",
"D  c #853D2B",
"F  c #8C3E2A",
"G  c #83372B",
"H  c #8A461E",
"J  c #804824",
"K  c #8D4922",
"L  c #844028",
"P  c #8F412A",
"I  c #974025",
"U  c #9A4224",
"Y  c #914C24",
"T  c #944229",
"R  c #9B4629",
"E  c #994B2A",
"W  c #9F582D",
"Q  c #9C532E",
"!  c #8E5433",
"~  c #975B33",
"^  c #934930",
"/  c #AA5524",
"(  c #A95128",
")  c #AC5B28",
"_  c #B75725",
"`  c #B55C2C",
"'  c #BD5E29",
"]  c #A25730",
"[  c #806B2F",
"{  c #81722F",
"}  c #A6682D",
"|  c #BB642E",
" . c #BB682B",
".. c #B7702B",
"X. c #A36737",
"o. c #BA6D39",
"O. c #AB7737",
"+. c #B97934",
"@. c #C56427",
"#. c #C86627",
"$. c #CD6B27",
"%. c #CB6B2A",
"&. c #C16B28",
"*. c #C4742C",
"=. c #DF792A",
"-. c #D47A2C",
";. c #C76E37",
":. c #C67732",
">. c #C97435",
",. c #E27C2A",
"<. c #A35E4C",
"1. c #A2664A",
"2. c #A47775",
"3. c #77A13F",
"4. c #759946",
"5. c #AE8932",
"6. c #BD9A35",
"7. c #C3852F",
"8. c #D4802D",
"9. c #D8832D",
"0. c #CB8231",
"q. c #C48936",
"w. c #D78832",
"e. c #C89336",
"r. c #EA8F2F",
"t. c #F2942F",
"y. c #E29432",
"u. c #EC9D33",
"i. c #E79C33",
"p. c #F19333",
"a. c #C5A037",
"s. c #D7A63A",
"d. c #ECA334",
"f. c #EAAB39",
"g. c #E9A13F",
"h. c #F3A935",
"j. c #E3B43A",
"k. c #F7B93A",
"l. c #EBA52D",
"z. c #B5CF38",
"x. c #E8C73B",
"c. c #F3C33C",
"v. c #F8C73D",
"b. c #F9C93E",
"n. c #FFD43D",
"m. c #A6874E",
"M. c #BBA95E",
"N. c #BCA663",
"B. c #DD8A58",
"V. c #FBB844",
"C. c #FFBE53",
"Z. c #E6AA41",
"A. c #D18C64",
"S. c #C09866",
"D. c #F2BE7B",
"F. c #9BDB49",
"G. c #B8D844",
"H. c #A0E355",
"J. c #B8E163",
"K. c #FACA48",
"L. c #FAC854",
"P. c #F2D34E",
"I. c #D7C16C",
"U. c #FFC968",
"Y. c #FCD567",
"T. c #FAC877",
"R. c #F4D678",
"E. c #79D7CE",
"W. c #93AE91",
"Q. c #AFA08D",
"!. c #A5AC8B",
"~. c #BBB3A9",
"^. c #BDBCB1",
"/. c #DCB596",
"(. c #EEBE9B",
"). c #DFBCA4",
"_. c #CDBABF",
"`. c #C1B7A5",
"'. c #B6D885",
"]. c #C7CE8B",
"[. c #F1D292",
"{. c #C8F293",
"}. c #FFE19C",
"|. c #E2EB84",
" X c #D7C7B7",
".X c #CAC1B1",
"XX c #E9D4AF",
"oX c #FFE1A0",
"OX c #F0EAB6",
"+X c #87DACF",
"@X c #A2DBC5",
"#X c #91E4E3",
"$X c #CEEBDA",
"%X c #FFF2CE",
"&X c #E6EFD6",
"*X c #C1F0EE",
"=X c #F9F4E8",
"-X c #F5FFFA",
/* pixels */
"        # & &                                 * * #         ",
"      8 q 8 - =                             $ ; 8 q 8       ",
"& & & v ..W e % * & * * * * * * * * * * & * % 5 W ..c # & * ",
"* : k } i.:.a u c v v v v v v v v v v v v v u s :.i.} k : & ",
"& 0 ..d.k.q.E ) -.9.8.8.8.8.8.8.8.8.8.-.-.-.) E e.k.d...0 # ",
"& q &.t.h.0.E _ ,.,.,.-.%.| ` | | %.-.,.,.,.` E 0.h.p.&.q # ",
"& 7 ) =.r.*.T ( #.%.@.( F h f f h T ( #.$.#.( R :.r.=.) 9 & ",
"O k 7.h.h.+.D } y.d.w.Q h ~ O.O.~ h Q w.d.y.} D ..h.h.7.k # ",
"O l a.v.v.+.s X.j.c.s.! h e.K.v.e.h ! s.K.s.X.h +.c.v.a.l # ",
"O , m 5.d.:.L n [ { N u h 0.k.n.s.h i N { [ n D :.l.5.m , * ",
"* = ; n :. .L 7 = & = 1 u | r.f.6.f 1 = * * 9 D ..*.n @ * * ",
"& > c J c q 3 + # . X $ 2 g ^ ~ n 2 $ X . X + 7 b c n d 3 * ",
"& 9 / Y : # & < j z z w 0 i s h i k j B V V < * X : Y / 9 & ",
"& 9 / Y = # O x 3.!.~.S.7.:.w.e.a.e.N.`._.^.S $ o : Y / 9 & ",
"& 9 / Y : < C 4.F.{.OXR.V.C.U.Y.Y.b.R.&X-X=XQ.0 + @ Y / 9 & ",
"& 9 / H : S ^.'.F.H.J.P.L.oX%X%XoXC.I.@X*X=X[.6.b ; K / 9 & ",
"& 9 / ] A !.OX|.z.z.z.x.L./._._.).T.].+X#X*X[.V.m.A X./ 9 # ",
"O 7 / A. XXXY.K.P.k.j.k.g.1.Z Z 2.XX$X+XE.+X].L.[. XA./ 7 # ",
"* 7 / B.(.D.f.l.d.u.p.p.9.( t t <./.`.W.W.W.M.Z.D.(.B./ 7 $ ",
"# 9 / %.;.>.%.#.$.%.%.%.#.| _ _ ` ;.;.;.o.o.&.%.;.;.#./ 7 O ",
"O 3 D U I F U U I U U T R R R R U U F U F F U U F U U D 3 & ",
"& : e e e e y r e e r r e e e e e r y e y r y r e e y e ; * ",
"& ; e a a p y y p p y y y y y y y p t y y a y y p p p e : & ",
"& > s F F F F F F F P F T F F F F F F F F F F F F P P d 3 & ",
"& ; e D F T T T P P T T F T T P I T T T F F I T T F G e ; * ",
"& - 4 y G F F F F F F D F F F F F F F D F F F F F D y 4 - * ",
"& - 4 r y y y y y y y y y y y y y y y y y y y y a r r 4 - * ",
"& % 3 4 4 4 4 4 4 4 4 4 4 4 4 4 4 4 4 4 4 4 4 4 4 5 5 3 - * ",
"* = - - - - - - % $ - - - - - - % = - - - - - - % % - - * * ",
"* * * * * & * * * * * * & * * * * * * & * * * & & & & & * * "
};
