/* XPM */
static char *chest_full_open_anim_f1_resized[] = {
/* columns rows colors chars-per-pixel */
"30 30 182 2 ",
"   c None",
".  c #1D1F22",
"X  c #2B1E25",
"o  c #1E2022",
"O  c #212222",
"+  c #282422",
"@  c #332226",
"#  c #3A2525",
"$  c #302E24",
"%  c #3C2B23",
"&  c #3D2028",
"*  c #581A2D",
"=  c #452E23",
"-  c #4E232B",
";  c #57232D",
":  c #5A242D",
">  c #582A2C",
",  c #4D3323",
"<  c #513422",
"1  c #573B24",
"2  c #6B292E",
"3  c #67282E",
"4  c #752E2D",
"5  c #693D27",
"6  c #76322E",
"7  c #753A2C",
"8  c #7C3A2D",
"9  c #79312D",
"0  c #743731",
"q  c #793D31",
"w  c #394928",
"e  c #534A29",
"r  c #5D4A29",
"t  c #5E4C26",
"y  c #5D5227",
"u  c #684726",
"i  c #684728",
"p  c #704624",
"a  c #774F27",
"s  c #775027",
"d  c #634038",
"f  c #7E533F",
"g  c #394849",
"h  c #524F4E",
"j  c #6F5941",
"k  c #6C615A",
"l  c #84362A",
"z  c #853C2B",
"x  c #8C3E29",
"c  c #863B26",
"v  c #80441F",
"b  c #884824",
"n  c #8F4029",
"m  c #804522",
"M  c #974025",
"N  c #9A4224",
"B  c #934229",
"V  c #9A4729",
"C  c #994B2A",
"Z  c #864B32",
"A  c #8D5033",
"S  c #9B5630",
"D  c #965432",
"F  c #8C5B26",
"G  c #A34A27",
"H  c #A84E27",
"J  c #A34E29",
"K  c #AA5624",
"L  c #A6522A",
"P  c #A7572A",
"I  c #B85726",
"U  c #BF5C25",
"Y  c #B35B2A",
"T  c #B55728",
"R  c #A25E34",
"E  c #99752E",
"W  c #9A6532",
"Q  c #AE6027",
"!  c #AE6928",
"~  c #BE6B29",
"^  c #BA672F",
"/  c #AC762D",
"(  c #BD732B",
")  c #A86735",
"_  c #BA6D39",
"`  c #B97A34",
"'  c #BC723E",
"]  c #A87036",
"[  c #C25D25",
"{  c #C56126",
"}  c #C46728",
"|  c #C56E2D",
" . c #CA6A2A",
".. c #C96626",
"X. c #D96F27",
"o. c #C5762C",
"O. c #D07028",
"+. c #DD7729",
"@. c #DD782A",
"#. c #CA6F3A",
"$. c #C46C34",
"%. c #CB7233",
"&. c #C97B32",
"*. c #C5703C",
"=. c #E37C2A",
"-. c #8F4E40",
";. c #915D5E",
":. c #A66651",
">. c #8D776B",
",. c #71AE34",
"<. c #7CB03E",
"1. c #B69635",
"2. c #83AE38",
"3. c #B8AD3A",
"4. c #DD842D",
"5. c #CA8032",
"6. c #C68A36",
"7. c #D88734",
"8. c #C99537",
"9. c #D59E39",
"0. c #E3832C",
"q. c #E98A2D",
"w. c #EA902F",
"e. c #F1932F",
"r. c #E29A34",
"t. c #EA9B37",
"y. c #F19333",
"u. c #D1A938",
"i. c #DDB739",
"p. c #EAA435",
"a. c #E8AA3A",
"s. c #F1A534",
"d. c #ECBF3B",
"f. c #F7B337",
"g. c #F3B53A",
"h. c #F4BD3B",
"j. c #FDB839",
"k. c #FFB636",
"l. c #EBA52D",
"z. c #B4D83C",
"x. c #C3D33F",
"c. c #ECC13C",
"v. c #FFCD3C",
"b. c #EDD33F",
"n. c #FFD13E",
"m. c #A1854E",
"M. c #AF995D",
"N. c #BBA95E",
"B. c #DD8A58",
"V. c #EDB044",
"C. c #D18C64",
"Z. c #E2B17D",
"A. c #F2BE7B",
"S. c #E9AC67",
"D. c #BBDD45",
"F. c #ECCE40",
"G. c #F5CE4C",
"H. c #F8D464",
"J. c #6EA89A",
"K. c #74DBD7",
"L. c #A19F90",
"P. c #91AC8D",
"I. c #9DB195",
"U. c #8AAC93",
"Y. c #87B9BA",
"T. c #DBAE96",
"R. c #EEBE9B",
"E. c #B4C484",
"W. c #CCD48F",
"Q. c #EBD291",
"!. c #F7DD95",
"~. c #E2ED84",
"^. c #CFC2A7",
"/. c #D6C5B6",
"(. c #C4C1B8",
"). c #E7D1AD",
"_. c #F1E6B5",
"`. c #89DCCD",
"'. c #83DBD1",
"]. c #98EBE9",
"[. c #D1ECD6",
"{. c #D4F2E5",
/* pixels */
"                                                            ",
"                                                            ",
"        o O O                                 O O o         ",
"      , i < # +                             + # 1 i ,       ",
"O o + u o.Q 3 & + O + O + + O + + + + O O O & 3 R o.u O O O ",
"o % u / p.&.8 7 s s s s a a a a s s a a a s 7 z &.t./ u % O ",
"o 1 ( p.h.6.C Y 4.4.4.4.0.4.7.4.4.4.4.4.4.4.Y C 6.h.p.( e . ",
"o 1 ~ e.s.5.C Y @.=.=.=.=.=.0.=.=.=.=.@.0.@.Y C 5.s.e.} 1 . ",
". , K +.q.| V H { ..[ [ { [ [ [ [ [ [ [ ..[ H V | q.+.K , o ",
". , K X.0.| V H [ [ [ K G x l l x G T [ [ [ G C | 0.X.H , X ",
". < Y 4.w.| B L ..O.} J z 0 0 0 8 z L ..X...L B | w.0.Y , o ",
". t 8.j.f.` 8 ! p.f.9.P q ] 8.6.] q S u.f.p.) z ` f.f.8.r . ",
". e 1.d.h.` 8 W u.i.8.Z q 8.G.v.8.q Z 8.i.u.W 0 ` c.h.1.e . ",
". $ e E l.&.c 5 y y r > 6 &.k.v.9.q > r y r 5 m o.r.E e $ O ",
"O + % p ! :.:.j w w e d A ^ 7.9.6.D d g g h f Q ~ ! p % + O ",
"X , v v 1 >./.E.<.,.2.3.8.S 8 m R 5.M.J.Y.(.Z.7.F 1 v b = . ",
". , K ) k L._.~.D.z.x.F.V.A * * -.S.Q.'.].{.!.V.m.k R K < O ",
". , K C./.).H.G.F.c.g.j.t.A * * ;.).[.`.K.`.W.G.Q./.C.K < . ",
". < K B.R.H.a.l.p.y.y.y.7.L z l :.T.^.I.U.P.N.a.A.R.B.K < . ",
". < K ..*.%...O. . . . .{ U T I U *.*.:._ _ |  .%.#...K < . ",
". = c G x x N x M M V B N V V V G x x N M M M M x N G c = o ",
"X @ 3 2 2 2 2 4 2 2 2 2 2 2 2 2 2 2 4 2 2 2 2 2 2 2 2 3 @ O ",
"o @ 2 9 9 4 9 9 6 4 4 9 4 9 6 4 9 9 6 4 6 4 9 4 6 4 9 3 # O ",
"o % 9 x x x x x x n x x x x x x x x x x x n x n n x x 7 = o ",
"O # 2 z x B B B n x B B B B B B x x N M B B B B B x l 3 # o ",
"O @ ; 4 c x x x x x z x z x x c x x c x c x c x x z 4 ; @ O ",
"o @ ; 3 4 4 4 4 4 4 4 4 4 4 4 6 4 4 4 4 4 4 4 6 4 4 2 ; @ o ",
"o @ - ; ; ; ; : ; ; ; ; ; ; ; ; ; ; ; ; ; ; ; ; ; ; ; - @ O ",
"O + @ @ @ @ @ @ @ @ @ @ @ @ @ @ @ @ @ @ @ @ @ @ @ @ @ @ + o ",
"O O O O o o O o o X o o o o o O o X o o O o O o o O O O O O "
};
