/* XPM */
static char *chest_full_open_anim_f0_resized[] = {
/* columns rows colors chars-per-pixel */
"30 30 134 2 ",
"   c None",
".  c #1D1F22",
"X  c #251F23",
"o  c #2C1C25",
"O  c #341C27",
"+  c #361E28",
"@  c #3A1D28",
"#  c #1E2022",
"$  c #212222",
"%  c #2B2623",
"&  c #2E2823",
"*  c #332226",
"=  c #3B2526",
"-  c #332C24",
";  c #392925",
":  c #3E2328",
">  c #363225",
",  c #3C3425",
"<  c #482626",
"1  c #402A24",
"2  c #432128",
"3  c #4E242B",
"4  c #56232C",
"5  c #5A232D",
"6  c #522C29",
"7  c #5C292A",
"8  c #403327",
"9  c #4F3222",
"0  c #5C3527",
"q  c #553B24",
"w  c #583E25",
"e  c #53332B",
"r  c #62252E",
"t  c #6C272F",
"y  c #672E2D",
"u  c #682B2C",
"i  c #752E2D",
"p  c #623626",
"a  c #6D302A",
"s  c #75322D",
"d  c #7D342C",
"f  c #7A382D",
"g  c #7C3D31",
"h  c #484127",
"j  c #514B29",
"k  c #5D4D29",
"l  c #624C2C",
"z  c #744E27",
"x  c #7D412A",
"c  c #7D4B28",
"v  c #7F5A29",
"b  c #774431",
"n  c #7D4032",
"m  c #76642D",
"M  c #80352B",
"N  c #833B2C",
"B  c #8A3C2A",
"V  c #923F29",
"C  c #834F27",
"Z  c #8C412B",
"A  c #924229",
"S  c #9E4728",
"D  c #865628",
"F  c #885528",
"G  c #865828",
"H  c #9F512B",
"J  c #864931",
"K  c #8C5334",
"L  c #8B5B30",
"P  c #965732",
"I  c #A24927",
"U  c #A54F2A",
"Y  c #A75324",
"T  c #AA5325",
"R  c #A0512B",
"E  c #AA5A2B",
"W  c #B05327",
"Q  c #B75826",
"!  c #BF5B25",
"~  c #B35E2B",
"^  c #83682F",
"/  c #99682A",
"(  c #947F31",
")  c #9D7D30",
"_  c #BC6828",
"`  c #B9712B",
"'  c #B67C2E",
"]  c #A96C34",
"[  c #B77B35",
"{  c #BC7C34",
"}  c #C35E25",
"|  c #C66025",
" . c #C86225",
".. c #C26D2D",
"X. c #C2722E",
"o. c #CA722E",
"O. c #CE792D",
"+. c #DC7729",
"@. c #D57F2D",
"#. c #DD7A2A",
"$. c #C17631",
"%. c #C27C34",
"&. c #C97D33",
"*. c #E07929",
"=. c #A48534",
"-. c #AB8E34",
";. c #B68037",
":. c #BA8237",
">. c #B29A35",
",. c #DF852D",
"<. c #D7882E",
"1. c #D18E36",
"2. c #CD9A3A",
"3. c #E2862D",
"4. c #E3892D",
"5. c #EC922F",
"6. c #F1912E",
"7. c #EA9330",
"8. c #ED9A32",
"9. c #CEA036",
"0. c #D1A837",
"q. c #D4A03B",
"w. c #D3AA38",
"e. c #ECA435",
"r. c #E2A939",
"t. c #F4A533",
"y. c #F0AB36",
"u. c #E4B33C",
"i. c #EDB43A",
"p. c #F1B338",
"a. c #F6BE3B",
"s. c #FDC43B",
"d. c #FFC93B",
"f. c #FFD63E",
/* pixels */
"                                                            ",
"                                                            ",
"                                                            ",
"                                                            ",
"        $ $ $                                 $ % $         ",
"      j m l : o                             o : l m j       ",
"$ $ % m w.:.a 2 & & % % % % & & % % % & & & : y ;.w.m $ $ $ ",
"$ ; z ' e.&.N x G G G G G G G G G G G G G D x Z &.e.[ z , $ ",
"# w X.6.7...A ~ ,.4.3.3.3.3.3.3.3.3.3.3.3.3.~ A ..5.5.X.w # ",
"# w _ 7.y.{ N U +.#.+.#.+.+.+.*.*.*.+.*.*.+.U N { y.6._ q # ",
"# 9 T 4.p.:.f V } | | | | | | | | | | | } } V d :.p.,.E 9 . ",
"# 9 T #.8.$.B I ! | | } | } } } } } } } } } I B X.8.#.Y 9 # ",
"# 9 Y #.7.$.A I } | } } | | | | }  .} | | } I A X.5.+.Y 9 # ",
"# 9 Y ,.y.{ d A }  .} } | |  .|  .} | | | } A f :.y.4.Y 9 # ",
"# 9 Y 4.y.:.d V } | } ! Q W W W W Q } } | } A d :.i.,.Y 9 # ",
"# 9 Y +.7.$.A I } | } W A d i i M A W } } } I Z X.5.+.Y 9 # ",
". q ` 7.8.` A E <.,.O.H M J K K J N R &.3.@.E Z _ 8.7.` q # ",
". k 9.s.a.[ g ] i.d.r.P x :.u.u.:.g P r.s.i.] g ' s.d.9.k # ",
"# h ( 0.p.%.g L -.>.=.b g 1.s.f.q.n b =.>.-.L N %.p.0.( h # ",
"# % > v <.o.Z p 8 , ; 6 f X.t.s.2.g 3 , , 8 0 B o.<.v > $ $ ",
"$ X O 0 F C p < O O @ @ 6 c / ) ^ e @ O O + < p C F 0 O X $ ",
"$ * 4 6 ; & * 2 5 r 4 : % * - - - % : 4 r 5 < * & ; 3 4 * # ",
". = y u 2 + : 7 d d i 6 : @ @ @ @ @ 6 i M s 7 : O 2 u a = $ ",
"$ 1 f d u r r s B B B i r r r r r r i B V Z s r r u d f 1 # ",
"# ; u d d M M B V A A B M M M M d M N V A A B M d M d u ; X ",
"$ * 4 i B B B B B B B B B B B B B B B B B B B B B N i 4 * $ ",
"$ O 4 t i i i i i i i i i i i i i i i i i i i i i i t 5 * $ ",
"$ % 4 4 4 4 4 4 4 4 4 4 4 4 4 4 4 4 4 4 4 4 4 4 5 4 5 3 * $ ",
"$ % * * * * * * O * * * * * * * O * * * * * * * O * * * $ $ ",
"# X $ # # $ $ $ # # $ $ # $ $ $ $ $ $ $ $ $ $ $ # $ $ $ $ $ "
};
