/* XPM */
static char *doors_leaf_closed_resized[] = {
/* columns rows colors chars-per-pixel */
"80 80 210 2 ",
"   c None",
".  c #0E1112",
"X  c #131314",
"o  c #1C1414",
"O  c #141718",
"+  c #17191A",
"@  c #1B1B1C",
"#  c #1B1818",
"$  c #100E0F",
"%  c #211714",
"&  c #211816",
"*  c #2D1B16",
"=  c #241519",
"-  c #2A171A",
";  c #221D1C",
":  c #2C1B19",
">  c #331E17",
",  c #33171F",
"<  c #351A1D",
"1  c #3A1C1E",
"2  c #3A1F17",
"3  c #27211F",
"4  c #35211B",
"5  c #3D221A",
"6  c #1E1F20",
"7  c #281E20",
"8  c #331C21",
"9  c #3A1B21",
"0  c #341720",
"q  c #1E2021",
"w  c #242323",
"e  c #2A2525",
"r  c #2B2827",
"t  c #242B2A",
"y  c #2C2929",
"u  c #272728",
"i  c #322423",
"p  c #3C2324",
"a  c #332D2C",
"s  c #382926",
"d  c #35302E",
"f  c #38312F",
"g  c #2A3433",
"h  c #2B3C3B",
"j  c #2C3635",
"k  c #363432",
"l  c #3C3332",
"z  c #3E3835",
"x  c #3B3B3A",
"c  c #343938",
"v  c #26302F",
"b  c #411E1F",
"n  c #44231C",
"m  c #4B261C",
"M  c #4E281C",
"N  c #52291D",
"B  c #5B2D1F",
"V  c #602F1F",
"C  c #461C26",
"Z  c #491D26",
"A  c #4E1F28",
"S  c #501F28",
"D  c #422227",
"F  c #432A23",
"G  c #4C2A24",
"H  c #422228",
"J  c #4D2328",
"K  c #532425",
"L  c #542D23",
"P  c #5D2C22",
"I  c #56212B",
"U  c #5A222C",
"Y  c #582926",
"T  c #593125",
"R  c #413735",
"E  c #433837",
"W  c #463A39",
"Q  c #4A3D3B",
"!  c #622E23",
"~  c #65252E",
"^  c #69272F",
"/  c #65292B",
"(  c #6D2B2D",
")  c #6D2F27",
"_  c #722D2E",
"`  c #782E2E",
"'  c #653122",
"]  c #6A3322",
"[  c #693129",
"{  c #733624",
"}  c #7B3727",
"|  c #7F3A26",
" . c #75322A",
".. c #7C332D",
"X. c #7D3A29",
"o. c #723827",
"O. c #642330",
"+. c #6B2730",
"@. c #722A30",
"#. c #4D413D",
"$. c #47433E",
"%. c #51433E",
"&. c #334E4C",
"*. c #314846",
"=. c #385553",
"-. c #385755",
";. c #31514F",
":. c #3D6663",
">. c #3B615F",
",. c #4B4A46",
"<. c #554541",
"1. c #594744",
"2. c #554B44",
"3. c #5C4A45",
"4. c #5A4E48",
"5. c #58514A",
"6. c #465C59",
"7. c #595A56",
"8. c #634E49",
"9. c #604C47",
"0. c #64534C",
"q. c #6B554F",
"w. c #66584E",
"e. c #6E5650",
"r. c #625951",
"t. c #6B5B51",
"y. c #705751",
"u. c #715A53",
"i. c #59625F",
"p. c #69625B",
"a. c #78675C",
"s. c #426C69",
"d. c #4A7B77",
"f. c #4C6D69",
"g. c #666562",
"h. c #746D64",
"j. c #7B7267",
"k. c #7E7469",
"l. c #67726E",
"z. c #813B26",
"x. c #81362C",
"c. c #85392B",
"v. c #8B3D2A",
"b. c #893E27",
"n. c #903F2B",
"m. c #8F4029",
"M. c #93422A",
"N. c #99442A",
"B. c #836E61",
"V. c #877568",
"C. c #947A6B",
"Z. c #997F6F",
"A. c #837F7A",
"S. c #4B817D",
"D. c #99806F",
"F. c #888178",
"G. c #9C8271",
"H. c #948778",
"J. c #AB8D7A",
"K. c #A38775",
"L. c #AE917E",
"P. c #B0927E",
"I. c #568884",
"U. c #52918C",
"Y. c #579893",
"T. c #6C8B86",
"R. c #5AA39D",
"E. c #57A29C",
"W. c #5CA8A2",
"Q. c #64ACA6",
"!. c #75AAA4",
"~. c #67BDB6",
"^. c #76B4AD",
"/. c #69C3BC",
"(. c #65C2BA",
"). c #77C3BB",
"_. c #6CCAC2",
"`. c #79D3CC",
"'. c #70CEC7",
"]. c #8A918C",
"[. c #99938B",
"{. c #989994",
"}. c #878B86",
"|. c #A39383",
" X c #AB9988",
".X c #B29682",
"XX c #B69C88",
"oX c #BCA38E",
"OX c #BAA592",
"+X c #BCAA97",
"@X c #90B9B2",
"#X c #ABA6A0",
"$X c #B1B9B2",
"%X c #C4AB96",
"&X c #C4B29E",
"*X c #C9B09B",
"=X c #CAB6A1",
"-X c #CFBEAB",
";X c #89C6BF",
":X c #BAC3BB",
">X c #C7C3BB",
",X c #DBC6AF",
"<X c #E2CCB4",
"1X c #ACD1C9",
"2X c #B0E0D7",
"3X c #8FCCC5",
"4X c #D0D7CE",
"5X c #CED9D0",
"6X c #E3DDD5",
"7X c #E7E1D8",
/* pixels */
"          + y 4.D.P.P.D.4.y %.J.,X,X,X,X<X=Xj.d + @ 3 q 3 q q @ w @ ; q q w 6 w w 6 6 @ w @ ; w w 6 6 6 q q @ # k j.=X<X<X+Xj.c R a.J.L.J.J.L.D.5.y X           ",
"          a $.t.D.P..XK.p.#.7.H.+X&X+X&X&X Xh.l u u u u w e u y y y y e r u w w e e y y y y y u w w u y i a u u l h. X=X=X Xp.k $.B.L.P.P.L.P.D.t.$.y           ",
"        f %.t.B.K.P.%XOXJ.V.j.j.j.j.j.j.j.h.w.<.Q #.W f u y R Q %.Q %.%.W d w y R Q Q Q #.#.Q a e y R Q Q Q Q Q <.t.h.V.V.p.,.y %.H.%X%X%XoXP.G.B.w.4.z         ",
"      u #.a.D.K.J.XX%X*X&X+XH.7.k k l l k x <.0.y.y.8.E e a 1.q.e.q.q.y.8.E y d 1.q.y.q.y.e.8.E y f %.q.e.e.q.e.0.%.z k c f u u 5.H.*X,X*X*XoXJ.K.D.a.$.u       ",
"    z #.w.V.J.XXP.oX[.J. X[.F.%.f s a a s f Q q.y.y.8.E e f <.q.y.q.e.y.0.W y s <.q.y.e.y.q.8.E y d %.q.y.q.y.y.8.R 3 3 r d d f 5.V.[.|.|. XXXXX%XJ.B.#.; O     ",
"+ y 2.a.C.K.L.%X*X Xh.5.,.5.5.5.3.3.3.3.3.9.3.1.1.1.%.l u a Q 1.3.1.1.1.%.f r a Q 1.1.1.1.3.%.l r y Q 1.3.1.1.1.%.f w y Q 1.9.8.3.4.2.,.2.h. X*X%XP.B.$.q + 6 6 ",
"y z 0.V.K.J..XOX+XH.5.a 3 3 z %.q.y.y.u.u.q.3.Q E E R a e e l R W W Q W R a u u l R W W E Q R a e y f E E Q W W R a a R 3.y.u.u.3.R y e y 5.H.OXXXK.a.%.a a a y ",
"w.0.0.w.B.L.OX|.F.p.%.#.#.#.#.%.<.3.8.8.8.9.Q f a a a y w u y a a a a a a e w u a a a a a a a y w w a a a a a a l R Q %.3.8.q.8.3.#.Q E Q 4.p.h.a.w.w.w.w.0.0.w.",
"D.V.w.E 7.|.+XV.$.z 3.e.y.q.%.R y z $.%.#.Q l u w w u w w w w u e w e w u w w w w u w u w e w w w w w w u w u w y Q 8.q.%.Q Q Q 1.8.q.y.q.9.Q d y d 2.a.Z.K.G.D.",
"P.K.B.7.p.F.H.r.k s %.y.y.e.%.s w y d l l f y @ @ @ @ @ @ @ @ + + @ @ 6 @ # @ @ @ @ @ # @ @ @ @ @ @ @ @ @ @ # # w R 3.%.W R l R Q 9.q.y.q.1.l e @ w #.C.XXXXL.J.",
"J.L.L.|.H.p.2.W z z #.%.9.%.#.a q 3 r r y u @ O X O O X X . X X X X X X o X X X X X X . X X X X O . X X . X X X # u a f a y e y f Q 1.3.1.Q W f u w 2.H.*X%X.XJ.",
"P.P.oXOXF.2.u a R #.W W Q W f r 3 q q 3 w ; ; & % X $ o % # % % o % o X X X o o o % & # % X X X o # % % % # o X X & e e w w @ w u f E E R W W R r r ,.H.OXoX.XP.",
"%XoXJ.V.r.k @ a W Q Q W R a y ; o # O O O o 4 m 5 % o * m N N M N M 5 % X % < b m N N m 5 % o * m M N M N M 5 % o 4 G n : O X + 6 r a d a d a a u w k 7.V.|.OX%X",
",XOXS.$.y u u a E Q Q R f e 6 # X X X X . % m { V > % n { z.z.z.c.z.B > o , S ^  .| b.| B * % n { b.z.z.b.z.B * o m { ] 4 X X X O 3 w u w e w e w w w a ,.V.OX-X",
"<X&XC.s ; y l l l l l l y @ O X $ % * 5 4 n ] b.] > % m b.M.M.M.N.m.] 4 o , S _ c.M.N.M.] > % M z.M.N.M.v.c.! * % N z.} N > > > 3 : 6 @ 3 u d f R f a ; y 7.H. X",
"<X&XV.f e Q 1.W a r r u 3 O . . o 5 V ] ] ] z.m.] > % m z.M.M.M.M.M.] > o , O._ c.M.N.M.] > % N z.N.N.v.c._ K * % M z.b.} ] ] ] N * O + 6 d #.9.8.9.Q y u k ,.5.",
"&X Xa.c f 1.q.%.d e w 3 @ % o $ % M | v.v.v.v.m.' > % m | M.M.m.n.n.] > o 9 S _ c.n.n.b.! > % m z.M.M.b...^ C = % M z.M.M.m.M.v.] > X O 3 d 2.w.u.y.3.f e 7 w q ",
"j.a.5.z R %.9.1.%.R y e 5 m 5 o % N b.v.c.x.v.v.] > % M | M.M.m.n.v.] * o 9 S @.c.n.c.` K - % m | N.M.v...~ C = o M z.M.M.M.N.M.] > X o 3 y E %.3.9.1.E a w 6 6 ",
"k k z R W Q %.9.q.%.f i L o.V > % M z.b._ ( ..v.] > % m z.M.M.m.N.b.] > o 9 S ` c.b.x.( S = % M | M.M.b...~ C = & M z.M.M.M.M.m.] 4 X X q w r y R Q #.W R a w 6 ",
"@ q d R Q W Q 1.2.#.y 3 T | ] 4 % M | c._ ~ ..v.] > % m | M.M.m.M.n.] < o 1 / ..b.v.c.) S - % m | M.M.v...O.C = % M z.v.c.c.v.v.] 5 X O + @ 6 3 a E Q Q W d u 6 ",
"6 7 a R Q Q W R l y @ & N z.{ > % M z.x.( ~ ..v.] > % m | M.M.M.M.n.] * o n { v.v.n.v.c.! * % m z.M.M.v...~ C = % N z.c... .x.v.] 2 $ $ X + @ w a E Q Q Q a w w ",
"7 r d W Q Q W a e ; # * B z.] > % M | c.@.^ ..b.] > % m | M.v.b.n.n.] > % M z.n.n.n.n.b.! > % m | M.M.c...~ C = % N z.c.( ^ ..v.] 4 X $ # & ; w a R R Q R a u q ",
"d k R W Q Q W a w 3 5 B { b.] > % M | c._ ^ ..c.] > % M z.v.x...b.b.] * % M z.M.n.v.c...Y * & M z.v.c._ ( ~ C = % M z.c._ ~ ..c.] 4 o * m n e w r a a a a e 7 6 ",
"R E W W Q Q E a e s ' z.n.v.' > % M | c._ O...v.] > % M z.c._ _ x.b.] > % M z.N.n.b.x.( Z = & M | c. .+.O.O.Z = % M z.x.( ~ ..b.] 4 o n o.] F u w u w u w w w w ",
"l l l l l R f r 3 5 o.m.N.m.' > % M | c._ ~ _ ..! > % m z.c..._ x.b.] > o m z.n.M.v...~ C % % M z.c.( O.O.~ Z = % m  ...^ ^ ..c.] > & N z.| L i 7 7 e d l l l l ",
"r r r r y y u @ + 4 ] m.N.M.] > % M | c._ ~ +.( K = % m z.n.c.c.v.v.] > % m z.M.M.c...^ C = % M z.x.( O.O.~ Z = o 1 / ( ~ ^ ..v.] > & N z.c./ J 8 7 a Q 9.9.9.9.",
"y r y y r w 3 # & n ] m.N.v.' > % m z.c._ O.O.O.Z = % M z.n.v.v.n.v.] > % m z.n.M.b...~ Z = % M z.x._ O.O.S Z & o 0 U O.~ ^ ..c.! > % m | c._ U p r d 1.e.y.y.y.",
"#.#.#.#.R y w 4 M ' | m.M.v.] > % m z.c.@.O.O.S Z = % M z.v.c...v.v.] > % m z.N.M.v...~ C = % m z.c.@.O.O.O.Z - o 0 U ^ _ ......Y * o n ^ ..x._ J r d #.8.8.8.9.",
"q.q.e.q.<.d e G o.b.m.m.m.m.' > & M z.c._ ~ O.~ C = % M | c._ ( x.b.] > % m z.M.M.v...^ Z = % M z.c._ ~ O.~ C = o 0 U _ x.b...( J = o < U ` c.X.T i r z Q %.#.#.",
"e.q.q.8.#.y e J ] | m.M.M.m.] > & m z.v..._ ^ ~ Z = % M z.c._ ~ ..b.] > % m z.M.M.c...^ C & % M z.c..._ ^ ~ C = o < U _ c.v.x.~ C = o , U @.c.z.T y r l W W Q W ",
"1.<.Q R a 7 7 e s T z.M.N.m.] > & M z.M.c.x._ ~ C = % N z.c._ ^ ..z.] * % m z.N.M.v...~ C = % M z.n.c.c._ ~ Z = o 0 U _ c.v...^ C = o , U @.c.b.P y r l W Q Q W ",
"Q W a 7 u v g t r s ] z.m.| T > & m { v.v.c...~ C = % M | x._ ~ ..b.] > % m } n.n.v...~ C = % M z.n.n.c...^ A = o 0 I ( ..|  .U C = o 1 ~ @.c...T e u l Q Q W Q ",
"Q R a u h :.:.*.q : n N B N 5 = % 4 L [  . .( ~ C = % M z.c._ ^ ..b.] > o b ) c.n.v...~ C % % M z.v.x.......Y * o = p J L L K D 8 o o n _ ....[ G e y z Q Q Q Q ",
"Q R i t ;.E.Q.d.h 3 e e y y y r w w u p U O.+.O.Z = % N z.x.( ~ ..c.] > o , U ` c.c...^ C = % M z.c.` ^ ..z.' 4 O # 7 e e e e e ; O o m } c._ ~ H r r l Q Q W W ",
"l f u w -.W.'.!.l.7.6.6.7.i.i.6.=.h u i Y ^ ( O.C = % M z.x.( +._ ..V > o 0 S ` c.b.c._ S % % M z.c...@.o.[ L * X O @ v *.&.h w # X o n '  . ./ J e u a l l l l ",
"r r 7 w -.W.`.1X:X$X!.Q.@X$X$X^.Y.:.g i [ X.` O.Z = % N z.c._ ~ ^ @.K * o 9 S _ c.n.v.c.! > % M z.v.b...[ G 4 ; # o ; *.d.U.:.t # # @ w F T  . .L e w w e y e e ",
"y y 7 w -.E.`.2X5X5X;X).1X4X5X3XW.:.j F { v...^ C = % M z.x._ ~ O.O.Z - o , S @.c.v.n.b.! > % m z.n.n.z.T i u v j g j s.W.(.U.*.g g g g u F o.X.T e w u y y a y ",
"Q Q s t -.W.`.@X{.T.I.I.T.].].I.d.;.t F ] v.x.O.C = % M z.c._ ~ O.O.Z = o 9 S @.c.n.v...K * % m z.N.N.b.B e h :.d.S.S.R.'.`.Q.U.d.d.:.;.t p T _ K e y z Q Q Q Q ",
"y.8.R y -.W.~.U.,.k k j k x x j g t u F o.b.x.~ C = % M z.c.( ~ O.S Z = o , O._ c.c.x.( Z = % M z.M.N.z.N y &.U.~./.(./.'.'._./._._.Q.s.j 8 I U H e f <.q.y.q.q.",
"y.8.E y *.S.U.:.v o O # O O + # # # @ s { c.x.~ Z = % M z.x._ O.O.O.Z - o 9 S _ c.v.c.) S - % N z.n.v. .L e -.R.'._.Q.W.R.R.R.W.~.'._.d.h 8 A U H e a 1.q.y.q.y.",
"1.%.l e v *.&.h q @ X X . . $ X X . . 5 ] b.../ C = % M z.c._ O.O.O.C % o 0 S @.c.v.n.z.B > % N c.v...^ C y -.W._.E.s.=.=.=.=.-.S.~.(.S.h 0 A U H u a W 1.1.1.1.",
"Q R f y w w w w 3 ; # & o o o $ X X % n { m...~ C = % M z.c.( ~ O.O.Z = o 0 O.@.x.n.n.v.' > % b | x._ U 9 y -.Q.).I.h ; ; w @ u 6.Q.).S.h 8 A U H 7 y l W Q W Q ",
"Q W R f a w @ + # ; n m n 1 - o o * m V | v...^ C = % N | x._ ~ O.O.Z = o 9 S _ z.n.N.n.] > % b ) _ @.U 9 y i.@X1XT.y X $ o $ # 7.@X1XT.x 8 A U H 7 y l W Q Q W ",
"Q Q W R f r 7 + X 4 V }  .U C % o n { b.m.v...~ C = % M z.c._ ~ O.O.Z = o 1 S _ c.n.M.n.] > % , U +.O.U 9 e 7.$X4X].x ; w u @ r g.$X5X].x 0 A I C r y l W Q W W ",
"l l l l d r 7 ; > N } v...+.C = % M b.N.N.v...~ C = % M | v...( ~ ~ C = % 1 ^ ..b.v.M.M.] > o , U O.O.U 9 7 ,.[.#X{.h.p.p.i.g.g.A.#X#Xh.v 0 A U H 8 t a l l l l ",
"e y y y w w e F ' } b.v...+.C = % M z.M.M.v...~ C = % M z.n.v.x._ ~ C = % b { v.n.n.M.b.] > o < S O.O.U < o t ,.h.[.$X>X>X-X4X$X#XA.7.c 6 7 A U H u 7 u 8 y y y ",
"y y y y r w i L X.v.M.v...+.C = % M z.M.M.c...^ Z = % M | M.M.b...~ Z = % M z.M.n.n.M.M.] > o < U O.O.U C - X = x A.>X7X6X6X6X6X#X7.7 X o 0 A U H 7 u u y y y r ",
"Q Q #.Q z y e G  .c.v.v...~ C = % M z.v... ... .K * % M z.M.M.v...~ C = % M c.n.M.M.M.b.] > o < U O.O.~ Y K , o 7 7.}.{.{.[.[.[.h.c o o , C U U H r y l Q #.#.#.",
"y.q.y.q.<.d 7 H O.` c.m...^ C ; % M z.c...( ..c.' > % M | M.M.b...^ Z % % M z.n.M.n.M.n.] > o 9 S O.O.+...} V > o w k x x x W x y 6 o < I U O.U H e d <.q.e.q.q.",
"e.q.y.q.1.f e 9 U @.c.c...O.C = % M | c..._ c.v.] > % m z.M.M.b.c._ S = % M z.n.b.c.v.v.] > o , U O.O.+.x.v.] 2 X . X O + O O O X . o 0 U O.O.U p e d <.q.e.q.q.",
"1.1.1.1.Q v r p U @.c.v...O.C = % M z.v.c.c.v.v.] > % M | M.M.v.v.x.! * % M z.c.` _ c.c.] > o , S O.O.~ x.c.] 2 . $ . . . . . . $ $ o 9 U O.O.O.H 7 a W 1.1.1.1.",
"Q Q Q R l y 7 9 I ( c.v.x.O.C = % M z.M.v.v.M.v.' > % m | M.M.M.M.v.! > % M | c._ ^ ..v.] > % , U O.O.~ ..b.] 4 X X o o % o % o o X o < U O.O.U H e y l W Q W Q ",
"Q R l d r 7 7 7 p Y | v.x.+.Z = % N z.v.c.x.c.v.] > % m z.M.M.v.M.n.] > % M | c._ ~ ..c.] > o < U O.O.~ ..c.] > o * n M N N N M 5 % o < U O.O.U H e r l Q Q W Q ",
"Q R k r w w w 7 r G o.v...O.C = % M | b._ ( ..v.] > % m | M.M.m.M.n.] > % M | c._ / ..b.] > o , S O.O.^ ..v.] > % n { b.z.z.z.| ! > o , U O.O.U 9 e r l W Q W W ",
"l f y w g *.&.h w i N ] / J 9 # % n [ [ ^ ^ ..c.] > o M | M.n.M.M.v.' > % M z.c._ ^ ..c.] 2 o , U +.@._ c.v.] > % M b.M.M.M.N.M.] > o 0 U O.O.U H e w a l l l l ",
"e e 7 w *.S.U.:.t ; 4 p 4 8 ; = ; 3 s G I ~ ..v.] > % M z.M.M.v.M.b.] > % M | x._ ^ x.c.] > o , S @.` c.v.v.] > % M z.N.M.M.M.m.] > o 0 U O.~ U H e w u r r r r ",
"r r 3 u -.R./.U.,.c c h c x x c g t t i I O...v.] > % m z.M.M.n.M.n.] > % m z.c.( ^ ..b.] > o , S _ z.v.M.M.' > % m | M.M.m.M.m.] > o , U ~ ^ ~ H e 7 e y y y y ",
"#.W s r -.W.`.@X{.T.l.I.T.].].T.d.-.t 7 J ^ x.c.] > % M z.M.M.n.M.b.' > % m z.c._ ^ ..c.] > o , ~ _ c.M.M.b.] > % m | M.M.m.M.m.] > o , U ^ _ _ J e y R Q %.Q Q ",
"y.0.R y =.E.`.2X5X4X@X_.3X4X2X3XW.:.g 8 A ^ ..v.] > % M | M.n.n.M.b.] > % m | c._ ~ x.c.] 2 o , S ` c.v.M.M.' > % m | M.M.m.M.b.] > o , U _ c.z.L i d <.y.y.q.q.",
"e.8.E r -.R.'.1X1X$X!.Q.@X$X$X@XY.:.g 8 A O...v.] > % b { b.n.n.N.M.] > % M } c._ ^ ..c.] > o , S _ z.m.M.m.] * % M z.M.M.m.M.m.] < o 0 S ` c.c.T y a <.q.e.q.q.",
"1.%.f y -.W.'.!.l.7.6.-.7.i.g.6.=.h t i S ~ x.v.] > o 2 ( ..c.n.n.n.] > % m z.z._ ~ ..b.] > o 0 O._ c.n.M.m.] > % m | M.m.m.M.m.] > o , U _ c.b.T r a E <.1.1.<.",
"Q R s u =.Y.Q.d.h 7 w 7 7 w u q w ; w 8 S ~ x.c.] > o , S ` c.n.n.c.! > % N z.c._ ^ ..c.] < o 0 S _ c.n.M.m.] > % m z.M.M.m.M.m.] > o , U _ c.z.T i y f W Q Q Q ",
"W E a w h :.:.&.q O X X . . . X X X + 7 A O.x.c.] > o , S ` c.v.v...K > % M z.c.@.~ ..b.] > o 0 S @.c.n.M.m.' > % M | M.m.m.M.m.] > o 0 U _ c.b.T r r k Q Q Q W ",
"Q W a e w g h g w @ # X $ X X X X X X - A ~ x.v.] > o , S _ c.v.x.( Z % % N z.c._ ~ ..b.] > % 9 S _ c.n.M.m.] > % m | M.M.m.M.m.] > o 0 U _ c.z.T i y l W Q W Q ",
"Q W l y e 7 7 e s m 5 4 5 4 * o $ % > n S ^ x.v.] 2 o , S _ c.n...^ Z = % m z.v.x.` c.v.] > % 2 / x.v.n.N.n.] > % b  .v.n.n.v.x.! > o 9 S @.x.` L y u a l l l l ",
"Q W W R d 7 7 G ] } o.] { ] N * % 5 V ] / ^ x.v.] > o , O.` c.v.x.^ Z = % M z.n.v.c.n.n.] > % n  .v.n.M.N.n.] > % , / x.v.n.v.` S = o 1 U +.@.^ J 7 w u r r y y ",
"W R R R d r e G o.z.z.z.z.z.V * % b { { ^ / [ } ! > o , S ^ ..} _ U 9 % % n { z.z.c.z.z.B * % n { z.z.z.z.z.V > o , S [  .} _ U b % o , S O.O.S p e w r y a y y ",
"a a d a y w e p N N N N N N 5 % o > m M b 1 n M 5 % X % < b m m n 9 * % o * m N N N N M 5 % o * M N N N N m 5 % X % < 5 m M b b , o $ % , 1 , , 7 7 y z Q Q Q Q ",
"u r r r u w 3 @ # % % o % o o O $ o o % o o # o o X X O o o % o o # X X X X % % % % & o o X . o o % % o % o % X . X X o % % o o X X X O o o o o + 7 k 1.q.y.q.q.",
"f f f f a r q # O X X . X . X X X X . . . X . O X X X X $ X X X . . X O X O . . . X . . X X X X O X O . $ X . . O O X X X X O X X X X X $ X . X O 7 k <.q.y.q.q.",
"9.3.9.9.#.a q @ @ @ + + + + + + # + + O + @ @ @ @ # @ + @ + + + + + @ @ ; @ + + + + + + O O @ @ @ @ + + + + @ # + + + @ @ @ @ + # # @ + + + + @ 6 6 a W <.1.<.1.",
"y.y.u.y.1.R y w w u y y d a d y a a d d d y u 3 w y y d a y a a a a y 3 3 u a d a a a a d d a u q 3 y a d y d d a a a y 3 q e a d a y d a d a y r 7 e R W Q Q Q ",
"0.8.8.8.3.1.Q a w d 2.t.t.t.t.t.t.t.t.t.t.0.k 3 y %.w.t.t.t.t.t.t.t.<.y w R 8.t.t.t.t.t.t.t.0.R 3 y %.t.t.t.t.t.t.p.t.%.y 3 z 4.t.t.t.t.t.t.t.0.Q r r l W Q W W ",
"Q %.Q Q 1.8.8.W y W a.Z.G.C.G.Z.D.D.D.G.D.V.%.3 s p.D.D.D.D.D.D.G.C.t.f 3 %.V.D.G.D.D.C.G.D.V.%.3 d t.D.G.D.G.D.C.G.Z.p.d 3 %.V.G.G.D.D.Z.Z.Z.V.3.a u l W Q Q W ",
"W W Q Q <.8.8.<.R %.t.B.C.C.C.C.C.C.C.C.Z.B.%.3 f t.C.Z.C.C.C.C.C.C.e.a 3 %.B.Z.C.C.C.C.C.C.B.%.3 a t.D.C.C.C.C.C.C.B.q.f s <.B.C.C.C.C.C.C.C.a.2.l a l W Q Q Q ",
"Q Q Q Q #.<.1.3.8.2.<.<.3.0.0.t.0.w.q.w.w.8.R e a %.w.q.0.w.q.w.t.0.<.a w R 4.t.t.w.q.q.t.t.3.z 3 a $.0.t.q.q.w.0.3.%.W l l %.0.t.w.w.w.t.4.<.$.E R R W Q Q Q Q ",
"R R E E E E Q 1.8.1.f u a R W W W R W W R R a u u l E E E E E E W E f y u a E W E W W W R W R a u r f W $.R R E R a t y f E E W W W W W E l r u a z W W R W W R ",
"d a d d d y d E Q R y @ w a a y a a a a a y u w e y a a a a a a a a y w w r y y a y y a a a a e u 3 r a a a a a a 3 q w y d d y a y a y a r w 6 u a a a a a a a ",
"e u w w w w r r r u w w w w u w w u w w w u w w w w u w w u w e w u w w w w w u w u w e u u w w 3 u w u 3 w u u 3 q w w u u w u w w u u w w w w w u u u u u u u ",
"7 6 7 q w 6 6 6 q q w w 3 q 7 q w q 6 7 w q q w q 7 w @ w q q 3 6 w 6 w w 6 7 6 w q 6 7 q q q 7 q q q q q 3 q q q 3 q w 3 6 3 q 7 6 7 q 7 q q w w ; ; q 7 q ; q "
};
