/* XPM */
static char *doors_leaf_open_resized[] = {
/* columns rows colors chars-per-pixel */
"80 80 185 2 ",
"   c None",
".  c #121212",
"X  c #17181A",
"o  c #1C1D1E",
"O  c #1A1717",
"+  c #090E10",
"@  c #271519",
"#  c #29161A",
"$  c #221D1C",
"%  c #2A1C1A",
"&  c #291B16",
"*  c #341E18",
"=  c #361F17",
"-  c #25211F",
";  c #2A211E",
":  c #35231E",
">  c #3E231C",
",  c #1E1F20",
"<  c #3E1D25",
"1  c #2D1D22",
"2  c #1F2020",
"3  c #232323",
"4  c #2A2625",
"5  c #2B2827",
"6  c #242B2A",
"7  c #2D2929",
"8  c #2A2728",
"9  c #342324",
"0  c #3D2424",
"q  c #3E2923",
"w  c #332D2C",
"e  c #3C292C",
"r  c #36302F",
"t  c #38312F",
"y  c #2A3433",
"u  c #2B3C3B",
"i  c #273130",
"p  c #363331",
"a  c #3B3332",
"s  c #3D3835",
"d  c #3B383C",
"f  c #2D2C32",
"g  c #48261B",
"h  c #552A1E",
"j  c #5C2D1F",
"k  c #461D25",
"l  c #4A1D26",
"z  c #412127",
"x  c #4E2225",
"c  c #452A22",
"v  c #4A2728",
"b  c #552D23",
"n  c #5C2C25",
"m  c #5B232D",
"M  c #562628",
"N  c #5B3125",
"B  c #573025",
"V  c #413635",
"C  c #433837",
"Z  c #463A39",
"A  c #4A3D3B",
"S  c #65262E",
"D  c #6D2D2C",
"F  c #622D27",
"G  c #732D2D",
"H  c #663324",
"J  c #6B3322",
"K  c #6A3328",
"L  c #733624",
"P  c #7C332D",
"I  c #7D3A28",
"U  c #793827",
"Y  c #47423D",
"T  c #4D413D",
"R  c #51433E",
"E  c #433C43",
"W  c #324847",
"Q  c #334E4D",
"!  c #365452",
"~  c #395956",
"^  c #385755",
"/  c #2F4D4C",
"(  c #3D6361",
")  c #4B4441",
"_  c #4F4A45",
"`  c #4F4E4C",
"'  c #424746",
"]  c #554541",
"[  c #594744",
"{  c #544B45",
"}  c #5C4A45",
"|  c #554E48",
" . c #5C4E49",
".. c #56504A",
"X. c #5C524A",
"o. c #5B5854",
"O. c #5E5450",
"+. c #604C47",
"@. c #634E49",
"#. c #64534C",
"$. c #6B554F",
"%. c #67584F",
"&. c #68594F",
"*. c #6E5650",
"=. c #635951",
"-. c #6A5B51",
";. c #605251",
":. c #705751",
">. c #725952",
",. c #6C635A",
"<. c #6C6057",
"1. c #73655B",
"2. c #79675B",
"3. c #7D695C",
"4. c #72695F",
"5. c #436F6C",
"6. c #497875",
"7. c #756B61",
"8. c #786D63",
"9. c #67716E",
"0. c #7B7267",
"q. c #79726B",
"w. c #833C27",
"e. c #843A2A",
"r. c #8B3D2A",
"t. c #83372B",
"y. c #913F2A",
"u. c #8E4029",
"i. c #91412A",
"p. c #99442B",
"a. c #836E61",
"s. c #867063",
"d. c #8B7466",
"f. c #8E7768",
"g. c #85796D",
"h. c #86786B",
"j. c #947A6B",
"k. c #997F6F",
"l. c #4B807C",
"z. c #99806F",
"x. c #8D8174",
"c. c #918476",
"v. c #9C8271",
"b. c #97897B",
"n. c #A18674",
"m. c #A48976",
"M. c #AB8D7A",
"N. c #AE917E",
"B. c #B0927E",
"V. c #5A8F8A",
"C. c #53918C",
"Z. c #559792",
"A. c #5AA49F",
"S. c #57A29C",
"D. c #5CA8A2",
"F. c #60ADA7",
"G. c #72A8A2",
"H. c #6AC0B9",
"J. c #72CBC4",
"K. c #7CD4CC",
"L. c #989188",
"P. c #929B96",
"I. c #A39383",
"U. c #AB9988",
"Y. c #B29682",
"T. c #B99D89",
"R. c #B49B87",
"E. c #BCA38E",
"W. c #ABA69F",
"Q. c #BAA592",
"!. c #BCAA97",
"~. c #C2AA95",
"^. c #C5AB96",
"/. c #C4B29E",
"(. c #C9B09B",
"). c #CAB6A1",
"_. c #D3BEA7",
"`. c #8DC3BB",
"'. c #B9C1BA",
"]. c #D9C5AE",
"[. c #DEC9B1",
"{. c #E2CCB4",
"}. c #A4D8D0",
"|. c #B3E6DD",
" X c #D1D9D0",
/* pixels */
"          o 7 #.z.N.B.z. .7 R N.].{.].[.[./.0.p O O 3 2 3 3 , 2 , , - , - 3 3 2 , , , , , , - , 3 3 , , - o o X p 0.).{.{.).8.p Y 2.m.N.M.M.N.z.#.7 X           ",
"          7 s <.v.B.B.m.<.Y o.b.!.!.!./.).U.7.s 6 8 5 6 3 3 4 5 5 7 7 7 8 3 3 3 4 7 7 7 7 7 8 4 3 3 8 8 4 w 4 4 s 7.U./.).U.,.p Y s.N.B.B.B.B.z.-.V 7           ",
"        t R -.a.n.B.E.Q.B.l.8.8.0.0.0.0.q.8.=.R A T A w 4 7 V A T T T A A r 4 7 V A A A A A A w 4 5 a T A A A A ] =.7.g.0.4.' 7 R c.!.^.~.E.B.v.s.-.| s         ",
"      4 T 2.z.m.M.E.^.(._.!.b.o.s r a t p s ] #.:.:.@.C 5 w ] $.:.$.$.:.@.C 8 r ] *.:.$.:.:.@.A 5 t R $.:.:.$.:.#.] s p p t 8 6 ..b.(.].(./.E.M.m.z.2.Y 6       ",
"    t T %.f.M.T.E.U.I.N.B.N.l.@.e w w w w V R #.:.:.@.A 4 w ] $.:.$.*.*.@.Z 5 t ] *.*.*.*.*.+.Z 5 t R $.:.$.:.:.@.C 3 $ 7 r r t  .h.b.I.L.U.R.T.E.B.a.Y - O     ",
"X 7 { 3.j.n.N.~./.U.8...R X.+.@.+.+.[ +.[ [ [ [ R } R t 4 w A [ } [ [ } R t 4 w A [ [ [ [ [ ] a 4 w A [ } [ [ [ R t 3 7 T [ +.+.} | ..| | 7.U.(.^.B.a.Y , X o o ",
"7 s #.f.n.M.U.Q.Q.b.X.7 ; 7 V } >.>.>.>.>.*.[ A A C V w 4 4 a V Z C C C V w 3 5 t C Z C Z Z V w 3 8 a C Z Z C C V e w V +.:.>.>.} C 7 4 7 X.b.Q.E.z.3.T w 7 w 7 ",
"%.#.X.%.s.N.E.I.0.<.R Y Y B T T A [ @.@.@.+.A t w w w 4 3 4 7 w w w w w w 8 3 4 7 w r w w w 7 8 3 4 7 w w w w w r V A R +.@.#.@.[ R A C A { ,.7.1.%.%.%.%.#.%.%.",
"z.f.#.Z o.I.!.g.Y Y +.$.:.$.R V 7 a A A R A a 8 3 4 4 3 3 3 3 4 4 3 4 4 3 3 3 3 3 4 4 3 4 4 3 3 3 3 3 4 4 4 3 4 7 T #.#.R A A A ] @.*.*.$.} A a 7 r _ 3.z.v.v.z.",
"B.m.0.O.,.x.c.=.t r R $.:.$.[ e 4 5 p a a t w 3 2 2 2 3 , 3 3 3 , 3 2 , 3 3 3 3 2 2 2 2 2 3 2 3 2 3 2 3 2 2 , 2 8 Z [ ] A a a V A } *.:.$.[ t 4 , 3 Y j.T.T.N.M.",
"M.N.I.I.x.,.| Z s V T R [ [ A w 3 3 8 7 7 7 4                                                                     r a t w 4 4 7 p A ] } [ E A e 3 4 | b.(.~.Y.M.",
"B.B.Q.Q.c.{ 8 w V Y A A A C t 4 2 - 3 3 3 3                                                                         3 3 3 3 3 3 5 a Z Z C C Z V 5 4 _ c.Q.E.Y.N.",
"~.E.M.g.;.p 2 7 C A A Z a r 4 - o X ,   3                                                                             o $     3 4 7 w w w w r w 4 3 p o.g.I.Q.^.",
"].Q.g.' 7 3 8 w Z A A C t 5 o X . .                                                                                               4 4 4 4 4 3 4 3 3 6 7 ) g.Q._.",
"{.!.0.r $ w t a a a a a e 9 % O .                                                                                                   - , - 6 w t V t w - 5 =.c.U.",
"{./.0.r 4 A [ A w 4 7 7 e z < @ .                                                                                                     , - w T +.@.+.A 5 3 d _ ..",
"/.U.4.s t [ #.R r 3 3 4 v m l # .                                                                                                     o 3 r ] $.:.:.} a 4 3 3 3 ",
"q.7...s V R +.} R V 7 4 b G n * .                                                                                                     2 3 7 V R } +.] V w 3 , o ",
"s p s V Z A R +.#.] r ; B U J = .                                                                                                       3 3 4 7 s A T A s w 3 3 ",
"o 2 r s A A A ] [ T 7 ; b w.J : .                                                                                                       3 3 o 4 w C A A Z w 4 , ",
", 3 w C A Z Z C a 7 , $ h w.J = .                                                                                                         2 2 3 w C A E A e 4 3 ",
"3 8 r C A A Z e 3 $ O * n e.J = .                                                                                                           3 4 w V Z C V w 3 , ",
"w t C Z A A Z w 3 ; > h L r.J = .                                                                                                           2 3 7 w w w 7 8 3 , ",
"Z Z Z Z A Z C w 6 > H w.u.u.F * .                                                                                                           3 3 3 3 4 4 4 3 3 3 ",
"a a a a a s r 8 , > L u.p.t.n * .                                                                                                             3 2 - 4 r t e V V ",
"4 8 8 8 5 7 8 o X : J r.e.G M # .                                                                                                               , 3 w T +.+.+.+.",
"w e w 4 8 4 3 O & > L r.P S l @ .                                                                                                               , 3 t [ :.>.>.:.",
"A A A E V 7 - : g J I r.P S l @ .                                                                                                                 3 e A @.@.@.$.",
"$.$.$.$.] r 9 b L w.u.u.P S k @ .                                                                                                                 3 7 V A E A A ",
":.$.$.+.A w ; c J w.u.u.P S l @ .                                                                                                                 3 7 a Z Z A A ",
"[ R A V w ; $ 4 c N I u.P S k @ .                                                                                                                 3 7 a Z A Z C ",
"A C e 8 6 i y 6 3 q H I P S k @ .                                                                                                                 3 7 a Z A A A ",
"A V w 3 u ( 5./ 2 % c N S S l # .                                                                                                                 3 7 a A A A A ",
"A V w 8 ! Z.D.6.u - 3 9 v m l # .                                                                                                                 3 7 a C A A Z ",
"a r 4 4 ~ D.J.G.9.| f 4 k m l # .                                                                                                                 3 4 w a V t V ",
"8 4 $ 4 ^ D.K.}.'.L.` 3 < M l # .                                                                                                                 3 3 8 5 5 4 7 ",
"7 7 - 3 ^ S.K.|. XW.o.8 k m x # .                                                                                                                 3 3 5 7 7 7 7 ",
"A A w 8 ^ D.K.`.P.q.E 8 b J n & .                                                                                                                 3 7 V A R A A ",
":.@.Z 7 ~ D.H.V.' f 8 4 B U J = .                                                                                                                 3 r ] $.:.$.$.",
":.@.Z 4 W l.C.( 6 O X - j I J = .                                                                                                                 3 r ] $.:.$.$.",
"[ A a 4 i W Q u - X . & h I J = .                                                                                                                 3 f A ] [ ] ] ",
"A A t 7 3 3 4 3 - o O ; j I J = .                                                                                                                 3 4 a A A A A ",
"A Z V e 7 - o X O & > h L u.J = .                                                                                                                 3 8 V Z A A A ",
"A Z Z C a 7 , X . : j w.u.u.J : .                                                                                                                 3 8 a Z A C A ",
"a a a V w 8 3 % * g U i.p.r.J * .                                                                                                                 3 8 w a a a a ",
"4 5 4 5 4 3 3 c J U r.i.p.r.J * .                                                                                                                 3 3 4 7 7 7 8 ",
"w 5 5 5 6 4 9 b I r.y.y.y.r.H * .                                                                                                                 3 3 7 w 9 7 7 ",
"T A T A V 7 4 v G e.r.r.e.U M * .                                                                                                                 3 7 V A A A A ",
"$.$.:.$.] r 4 z S G e.r.P D x @ .                                                                                                                 3 r ] $.*.$.$.",
"$.:.*.$.] p 1 < m G t.r.P S l @ .                                                                                                                 3 t ] $.:.$.$.",
"[ ] [ ] A 7 4 z m G t.r.P S l @ .                                                                                                                 3 w C ] [ [ ] ",
"A Z A Z t 8 4 < m D t.e.P S l @ .                                                                                                                 3 7 a Z A A A ",
"A Z a r 7 - , 1 e N I r.P S l # .                                                                                                                 3 7 a A A A A ",
"Z C a 8 3 3 3 3 4 v L r.P S l @ .                                                                                                                 3 7 a Z Z C A ",
"V e 7 3 i W W u 3 9 B K G S l @ .                                                                                                                 3 4 w a a a a ",
"4 4 - 3 W C.C.~ 6 $ 4 c m m l # .                                                                                                                 3 3 4 8 7 8 8 ",
"5 4 - 4 ^ A.H.V.' p 8 4 z m l # .                                                                                                                 3 4 8 7 w 7 7 ",
"R A w 4 ~ D.K.`.P.q.E 3 < m l # .                                                                                                                 3 7 V A A A A ",
":.+.V 7 ! S.K.|. XW.o.8 < m l # .                                                                                                                 3 w ] *.:.*.$.",
":.@.C 5 ^ A.K.}.'.L.` 3 < m l # .                                                                                                                 3 e ] $.:.$.$.",
"[ R e 5 ^ D.J.G.9.| f 4 k m l # .                                                                                                                 3 w Z [ [ [ ] ",
"A C w 8 ! Z.F.6.u % 4 7 v m l # .                                                                                                                 3 7 a C A A A ",
"A C w 3 u ( 5./ 2 $ c B S m l @ .                                                                                                                 3 7 a A A A A ",
"A C w 4 6 y y 6 4 q K I P S l @ .                                                                                                                 3 7 a Z A C Z ",
"A C a w 4 - - 1 q N I u.e.G x # .                                                                                                                 3 8 w a a a a ",
"A A C V w 3 1 c K I u.u.u.t.n * .                                                                                                                 3 3 4 8 8 7 4 ",
"V C C C t 6 4 b e.u.r.r.i.u.K = .                                                                                                                 3 3 4 7 7 7 7 ",
"w w w w 7 4 9 N r.y.t.P r.u.J = .                                                                                                                 3 7 V A R A R ",
"8 8 4 4 4 2 4 N w.t.G D P w.J : . +                                                                                                             , , t ] $.*.*.*.",
"t t a t 7 4 4 c H K M x F H h % X .                                                                                                             o 3 t ] $.*.$.*.",
"+.+.+. .T w 3 : q q 9 : 9 0 : $ X o o o o 2 2 3 3 , , , o o o o O , , 3 3 2 o o , , o o , o o , 3 , , , , , o o o , , , 3 3 , , o o , o o o o o , 3 9 Z E +.] ] ",
":.:.:.*.} V 7 3 3 3 7 r r w r w w w w r r 7 8 3 3 5 7 r r w r w r r 5 3 3 8 w r r r w w r r w 6 3 6 7 w r 7 r r w p 7 7 8 3 8 7 r r w w r w r w 7 3 7 V A A A A ",
"@.@.@.+.+.] A w - 7 { =.-.=.=.-.-.%.%.-.-.X.a - 7 R %.&.%.%.%.%.-.=.] 5 3 V +.&.-.%.%.%.-.=.#.Y r s ] %.-.%.%.%.*.-.=.{ d f Z ;.%.%.%.%.*.=.-.#.Z 5 8 a Z Z Z Z ",
"T T R A [ @.@.Z 7 Z 1.k.v.k.z.z.z.z.z.z.z.d.R - r <.z.z.z.z.z.z.v.j.-.r - R d.z.k.k.k.k.v.v.d.;.Z ) 1.z.k.k.k.k.j.v.k.7.E d ;.d.v.z.z.z.k.v.v.d. .7 6 a Z A A A ",
"A C A A ] @.@.] Z R >.d.f.j.j.j.j.j.j.j.k.a.R 3 r -.j.k.j.j.j.j.j.j.*.w - R a.k.j.j.f.j.j.j.s.X.s Y 1.f.j.j.j.j.f.f.a.>.E E ;.s.j.j.j.j.f.f.f.3.} t w V A A A A ",
"A A C A A ] [ +. .{ ] T } #.%.$.%.%.$.&.*.+.V 4 7 R #.:.#.*.#.#.*.#.] w 4 V X.%.%.*.%.%.*.*.@.Z w p ] %.%.*.%.%.#. ._ Z C E [ ;.$.$.%.%.%.#.] Y Z V V C Z A A Z ",
"V C C C C C E [ #.R t 8 w V Z Z V C C C Z s w 3 5 a Z Z A C C A C C t 8 3 f V Z C C C C C C C w 4 8 a Z Z Z Z Z C w 8 7 t C C Z Z Z Z Z Z a 5 8 w a C C C C Z V ",
"w w w r w w w C A C 8 , 3 7 7 w w w w w w 7 8 3 4 7 7 w w 7 w w w w 7 4 3 4 w w w w w w w w 7 4 3 3 7 7 w 7 w 7 7 4 , 3 w w w w w 7 w 7 7 8 3 , 8 w r w w w w w ",
"4 3 4 3 4 3 4 4 7 6 - 3 3 3 4 4 3 4 3 4 4 3 3 3 3 3 4 3 3 4 3 3 3 4 4 3 3 3 3 3 3 3 3 3 3 4 3 3 3 3 4 4 4 4 4 4 3 3 3 3 3 3 4 3 4 4 4 4 4 3 3 3 3 3 8 6 4 4 3 4 ",
"3 , 3 , 3 , 3 , - - - 3 3 3 2 2 3 , , , 3 2 2 3 3 2 2 3 2 2 - - 3 , , , 3 3 3 3 3 , 3 3 3 , 3 3 3 2 2 2 2 2 2 2 3 3 , 3 , 3 , 3 2 2 2 2 2 3 3 2 3 , - , 3 - 2 3 "
};
