/* XPM */
static char *ready_2_resized[] = {
/* columns rows colors chars-per-pixel */
"80 80 101 2 ",
"   c None",
".  c #333334",
"X  c #484641",
"o  c #4E4C43",
"O  c #4E4D48",
"+  c #52514D",
"@  c #575859",
"#  c #5F5D59",
"$  c #676250",
"%  c #6A6553",
"&  c #6E6956",
"*  c #716B56",
"=  c #736D5A",
"-  c #76715D",
";  c #79735E",
":  c #706C65",
">  c #747062",
",  c #7A7461",
"<  c #7E7862",
"1  c #78746C",
"2  c #7D796C",
"3  c #847D67",
"4  c #857E69",
"5  c #847F75",
"6  c #7E807C",
"7  c #878069",
"8  c #8B846D",
"9  c #868171",
"0  c #8C8572",
"q  c #888378",
"w  c #928A75",
"e  c #938C7B",
"r  c #988F78",
"t  c #9B937E",
"y  c #A0977E",
"u  c #838381",
"i  c #868984",
"p  c #888B87",
"a  c #8C8E8A",
"s  c #8F928D",
"d  c #9C9482",
"f  c #94928D",
"g  c #9A968A",
"h  c #9C9889",
"j  c #939792",
"k  c #969994",
"l  c #9B9C95",
"z  c #A09781",
"x  c #A59C85",
"c  c #A79D88",
"v  c #A89F90",
"b  c #9EA19B",
"n  c #AAA087",
"m  c #ACA38C",
"M  c #B1A68B",
"N  c #B3A98F",
"B  c #AAA393",
"V  c #A3A49D",
"C  c #AEAB9E",
"Z  c #B0A795",
"A  c #B5AB92",
"S  c #B9AE95",
"D  c #B5AC9A",
"F  c #BAAF99",
"G  c #BBB195",
"H  c #BCB39C",
"J  c #A3A6A1",
"K  c #A5A9A3",
"L  c #ABABA4",
"P  c #ABABAA",
"I  c #ADB1AA",
"U  c #B3B4AE",
"Y  c #B7B8AF",
"T  c #B2B4B1",
"R  c #BBBBB3",
"E  c #BABBBA",
"W  c #C0B69F",
"Q  c #C0B6A3",
"!  c #C5BAA5",
"~  c #C8BDA7",
"^  c #C1BDAA",
"/  c #C9BEA9",
"(  c #C0BFBC",
")  c #CCC1AC",
"_  c #CBC3B4",
"`  c #C2C7BE",
"'  c #C4C8BE",
"]  c #BFC0C0",
"[  c #C5C5C5",
"{  c #C6CBC3",
"}  c #CACAC3",
"|  c #C9C9C9",
" . c #CFD1C4",
".. c #D2D7CC",
"X. c #D1D1D1",
"o. c #DAD7D2",
"O. c #D6DBD1",
"+. c #D7D7D8",
"@. c #DCDCDC",
"#. c #DCE2D8",
"$. c #E5E5E6",
/* pixels */
"                                                                                                                                                                ",
"                                                                                                                                                                ",
"                                                                                                                                                                ",
"                                                                                                                                                                ",
"                                                                                                                                                                ",
"                                                                                                                                                                ",
"                                                                                                                                                                ",
"                                                                                                                                                                ",
"                                                                                                                                                                ",
"                                                                                                                                                                ",
"                                                                                                                                                                ",
"                                                                                                                                                                ",
"                                                                                                                                                                ",
"                                                                                                                                                                ",
"                                                                                                                                                                ",
"                                                                                                                                                                ",
"                                                                                                                                                                ",
"                                                                                                                                                                ",
"                                                                                                                                                                ",
"                                                                                                                                                                ",
"                                                                          ) ) ~ S                                                                               ",
"                                                                        ) ) ) ~ H F                                                                             ",
"                                                                      ) ) ) ) ) / W A                                                                           ",
"                                                                      ) ) ) ) ) ) / !                                                                           ",
"                                                                      ! ~ / H D / Q Z                                                                           ",
"                                                                      S W ! q : D z #                                                                           ",
"                                                                        H ~ d 5 W c 1                                                                           ",
"                                                                          / ~ Q ~ ! Y                                                                           ",
"                                                              s s I O.      ! ! / H x C                                                                         ",
"                                                            b s s L {       t n ! m 8 l K                                                                       ",
"                                                          ..P s s k J ` #.  * ,       i i 6                                                                     ",
"                                                          ..R K j p a Y }   t 0 =     q i b                                                                     ",
"                                                            ..' b p i J R ) ~ B , w Q f k {                                                                     ",
"                                                            ! R R I b K     d 0 -     V K                                                                       ",
"                                                            M H  .{ Y       7 ,       Y R                                                                       ",
"                                                          N           A H ~ ! m , w / _ /           @.X.[ |                                                     ",
"                                                          N           w z Q S d , 0 m c z         X.+.| | [                                                     ",
"                                                      N N             & =   , =     8 < =   $.@.| | | | |                                                       ",
"                                                      N N                 m m d - 8 B C T [ X.X.| |                                                             ",
"                                                      N N                 N S B 9 d _ o.+.| | | |                                                               ",
"                                                    N                       3 5 C ( } | | | |                                                                   ",
"                                                    N                       f g E [ E [ R L h                                                                   ",
"                                                      N N                 | [ ] | E P     8 7 3                                                                 ",
"                                                        N N         | | | | ] E [               7 3 4 3 3 3                                                     ",
"                                                          N       P [ [ [ [ L l                 3 3 3 3 3 7                                                     ",
"                                                            G t + u [ E T   2 :                       7 3 3                                                     ",
"                                                            G t O @ s V B   = & %                       4 3                                                     ",
"                                                            G t X . + e c 4 3 3 * %                                                                             ",
"                                                                  o & 7 w 7 3 3 < = %                                                                           ",
"                                                                    4 8 7 < 3 3 3 - %                                                                           ",
"                                                                      n r = ; 3 * %                                                                             ",
"                                                                      S x = = - & 3                                                                             ",
"                                                                      N N   $ %     N                                                                           ",
"                                                                    N                 N                                                                         ",
"                                                                    N                 N N                                                                       ",
"                                                                    N                 N N                                                                       ",
"                                                                  N N                   N                                                                       ",
"                                                                N N                       N                                                                     ",
"                                                                A A                         S                                                                   ",
"                                                                n n                         n n                                                                 ",
"                                                                0 8                         0 8                                                                 ",
"                                                                3                             3                                                                 ",
"                                                            7 3                                 3 3                                                             ",
"                                                            3 3                                 4 3                                                             ",
"                                                            3 3                                 3 4                                                             ",
"                                                          7                                     7 3                                                             ",
"                                                          7                                     3 <                                                             ",
"                                                          3                                     3 ; &                                                           ",
"                                                        3 3 - %                                 3 3 ; &                                                         ",
"                                                      3 7 3 = %                                 3 3 3 = $                                                       ",
"                                                                                                                                                                ",
"                                                                                                                                                                ",
"                                                                                                                                                                ",
"                                                                                                                                                                ",
"                                                                                                                                                                ",
"                                                                                                                                                                ",
"                                                                                                                                                                ",
"                                                                                                                                                                ",
"                                                                                                                                                                ",
"                                                                                                                                                                "
};
