/* XPM */
static char *ready_3_resized[] = {
/* columns rows colors chars-per-pixel */
"80 80 100 2 ",
"   c None",
".  c #28282A",
"X  c #3C3C3C",
"o  c #474540",
"O  c #4A4843",
"+  c #514F4A",
"@  c #52504B",
"#  c #5C5B59",
"$  c #645E4B",
"%  c #66614F",
"&  c #676250",
"*  c #6A6552",
"=  c #6E6956",
"-  c #706A57",
";  c #736D5A",
":  c #77715D",
">  c #79735E",
",  c #676869",
"<  c #706C65",
"1  c #7A7461",
"2  c #7E7862",
"3  c #78746C",
"4  c #847D66",
"5  c #857E69",
"6  c #827E73",
"7  c #7E807C",
"8  c #878069",
"9  c #8B846D",
"0  c #8B8471",
"q  c #888378",
"w  c #928A74",
"e  c #938E7B",
"r  c #9B927D",
"t  c #A0977E",
"y  c #878780",
"u  c #868984",
"i  c #898B87",
"p  c #8C8E8C",
"a  c #908D84",
"s  c #8F928D",
"d  c #9C9482",
"f  c #95938A",
"g  c #9D9688",
"h  c #949791",
"j  c #969994",
"k  c #9B9D95",
"l  c #A49B84",
"z  c #A99F86",
"x  c #A79F8D",
"c  c #A89F90",
"v  c #9EA19B",
"b  c #AAA087",
"n  c #ACA38C",
"m  c #B3A98F",
"M  c #A2A59E",
"N  c #ACAA9D",
"B  c #B1A794",
"V  c #B5AB92",
"C  c #B8AE94",
"Z  c #B5AC9A",
"A  c #BAAF99",
"S  c #BBB095",
"D  c #BCB29C",
"F  c #A4A6A3",
"G  c #A5A9A3",
"H  c #ABACA5",
"J  c #A9A9AA",
"K  c #B1AFA7",
"L  c #ADB1AA",
"P  c #B3B5AE",
"I  c #B9B8AE",
"U  c #AFAFB0",
"Y  c #B3B5B1",
"T  c #BBBBB5",
"R  c #B7B7B8",
"E  c #BBBBBB",
"W  c #C0B69F",
"Q  c #C0B6A3",
"!  c #C5BAA5",
"~  c #C8BDA7",
"^  c #C5BDAA",
"/  c #C9BEA9",
"(  c #C1BEB9",
")  c #BDC2B9",
"_  c #CCC1AC",
"`  c #CBC3B4",
"'  c #C4C4BC",
"]  c #BEBFC0",
"[  c #C6C6C5",
"{  c #C9C7C4",
"}  c #C6CAC2",
"|  c #CACAC4",
" . c #C9CACA",
".. c #D4CEC3",
"X. c #CED4CA",
"o. c #D2D7CC",
"O. c #D2D2D3",
"+. c #D5DBD1",
"@. c #DBDBDB",
"#. c #DCE2D8",
/* pixels */
"                                                                                                                                                                ",
"                                                                                                                                                                ",
"                                                                                                                                                                ",
"                                                                                                                                                                ",
"                                                                                                                                                                ",
"                                                                                                                                                                ",
"                                                                                                                                                                ",
"                                                                                                                                                                ",
"                                                                                                                                                                ",
"                                                                                                                                                                ",
"                                                                                                                                                                ",
"                                                                                                                                                                ",
"                                                                                                                                                                ",
"                                                                                                                                                                ",
"                                                                                                                                                                ",
"                                                                                                                                                                ",
"                                                                                                                                                                ",
"                                                                                                                                                                ",
"                                                                                                                                                                ",
"                                                                                                                                                                ",
"                                                                          _ _ ~ C                                                                               ",
"                                                                        _ _ _ / W C                                                                             ",
"                                                                      _ _ _ _ _ / W V                                                                           ",
"                                                                      _ _ _ _ _ _ ~ ~                                                                           ",
"                                                                      ~ ~ / D Z ^ I B                                                                           ",
"                                                                      C W ! q < Z g #                                                                           ",
"                                                                        A / d 6 D c 3                                                                           ",
"                                                                          / ^ ! _ ! Q                                                                           ",
"                                                              s s P +.      ! ! _ A l N                                                                         ",
"                                                            k s s H }       t b ! n 0 k G                                                                       ",
"                                                          o.H s s j M ' #.  - >       u u 7                                                                     ",
"                                                          +.E G j u p I |   d 0 ;     q u v                                                                     ",
"                                                            o.' v u u G T _ ! B 1 w Q f j |                                                                     ",
"                                                          m   o.) L v G     d 0 :     M G           @.O. .[                                                     ",
"                                                          m     +.} Y       8 1       I P         @.@.O.[  .                                                    ",
"                                                      m m             V D ^ ! n 1 w / / ^     @. . . . . .                                                      ",
"                                                      m               w l Q Z r ; 9 B ` ..  O.O. . .[  .                                                        ",
"                                                    m                 = =   1 :     e ' @. . . . . .                                                            ",
"                                                    m                     b l n ( R K [ O. . .                                                                  ",
"                                                    m                     Z ^ ` { [ [ [ [ T H                                                                   ",
"                                                      V m                 ' { { { ] U     e 9 4                                                                 ",
"                                                        m                . .[ E [ R J     4 4 4                                                                 ",
"                                                          m          .[ { { Y F                 4 4 4 8 5 4                                                     ",
"                                                            C r @ p  .E R   i 6                       5 4 4                                                     ",
"                                                            S r + , J J J   $ &                       5 4 4                                                     ",
"                                                            S r O X #       % &                                                                                 ",
"                                                              r O . X       > ; =                                                                               ",
"                                                                      n l 8 4 2 = &                                                                             ",
"                                                                    9 w w 8 4 4 2 ; *                                                                           ",
"                                                                    4 9 8 2 4 4 4 : *                                                                           ",
"                                                                      b e : > 4 - *                                                                             ",
"                                                                      C l ; ; : = 5                                                                             ",
"                                                                      m m   & *     m                                                                           ",
"                                                                    m                 m                                                                         ",
"                                                                    m                 m m                                                                       ",
"                                                                    m                 m m                                                                       ",
"                                                                  m m                   V                                                                       ",
"                                                                m m                       m                                                                     ",
"                                                                V V                         V                                                                   ",
"                                                                b b                         b b                                                                 ",
"                                                                9 9                         9 9                                                                 ",
"                                                                4                             4                                                                 ",
"                                                            8 4                                 8 4                                                             ",
"                                                            4 5                                 4 4                                                             ",
"                                                            4 4                                 8 4                                                             ",
"                                                          8                                     4 4                                                             ",
"                                                          5                                     8 2                                                             ",
"                                                          4                                     4 > =                                                           ",
"                                                        8 4 > *                                 4 4 > =                                                         ",
"                                                      4 4 4 ; &                                 4 5 4 ; &                                                       ",
"                                                                                                                                                                ",
"                                                                                                                                                                ",
"                                                                                                                                                                ",
"                                                                                                                                                                ",
"                                                                                                                                                                ",
"                                                                                                                                                                ",
"                                                                                                                                                                ",
"                                                                                                                                                                ",
"                                                                                                                                                                ",
"                                                                                                                                                                "
};
