/* XPM */
static char *ready_1_resized[] = {
/* columns rows colors chars-per-pixel */
"80 80 100 2 ",
"   c None",
".  c #2C2C2E",
"X  c #464441",
"o  c #4C4A45",
"O  c #494A4B",
"+  c #52504B",
"@  c #565451",
"#  c #676250",
"$  c #6A6553",
"%  c #6E6956",
"&  c #68655F",
"*  c #706A57",
"=  c #736D5A",
"-  c #76705D",
";  c #79735E",
":  c #7A7461",
">  c #7E7862",
",  c #747474",
"<  c #847D67",
"1  c #857E6A",
"2  c #827E72",
"3  c #8C846D",
"4  c #8C8571",
"5  c #8D8877",
"6  c #82847F",
"7  c #88867C",
"8  c #918975",
"9  c #918C79",
"0  c #9A927C",
"q  c #848682",
"w  c #8A8A84",
"e  c #8B8E89",
"r  c #948E81",
"t  c #8F928D",
"y  c #949187",
"u  c #9C9584",
"i  c #90938E",
"p  c #9B978C",
"a  c #97988F",
"s  c #9F9B8D",
"d  c #929590",
"f  c #969994",
"g  c #9A9B95",
"h  c #9B9D9B",
"j  c #A39A84",
"k  c #A29F96",
"l  c #9FA39D",
"z  c #AAA087",
"x  c #ACA38C",
"c  c #B1A78C",
"v  c #B3A98F",
"b  c #A7A296",
"n  c #AAA192",
"m  c #A4A59D",
"M  c #B1A793",
"N  c #B5AB92",
"B  c #B9AF95",
"V  c #B4AB9A",
"C  c #B9AF98",
"Z  c #BBB094",
"A  c #BCB29B",
"S  c #A5A7A4",
"D  c #A7ABA3",
"F  c #ABABA4",
"G  c #AAAEA8",
"H  c #B2AFA7",
"J  c #AEB2AB",
"K  c #BDB8A3",
"L  c #B3B2AE",
"P  c #BBB9AF",
"I  c #B2B3B2",
"U  c #B8B7B5",
"Y  c #B5B8B1",
"T  c #BCBEB5",
"R  c #BBBBBB",
"E  c #C1B69F",
"W  c #C0B7A4",
"Q  c #C4BAA4",
"!  c #C8BDA7",
"~  c #C7BCA8",
"^  c #C9BEA9",
"/  c #C3BFB2",
"(  c #BFC3BB",
")  c #CBC0AB",
"_  c #C5C5BA",
"`  c #CDC7BB",
"'  c #C6C8BC",
"]  c #C5C5C5",
"[  c #C3C8C0",
"{  c #C9CBC6",
"}  c #C7C7C8",
"|  c #CACACA",
" . c #CDD1C8",
".. c #D1D3C6",
"X. c #D2D7CD",
"o. c #D3D8CE",
"O. c #D3D3D4",
"+. c #D8D6D3",
"@. c #D8DDD3",
"#. c #DCDCDC",
/* pixels */
"                                                                                                                                                                ",
"                                                                                                                                                                ",
"                                                                                                                                                                ",
"                                                                                                                                                                ",
"                                                                                                                                                                ",
"                                                                                                                                                                ",
"                                                                                                                                                                ",
"                                                                                                                                                                ",
"                                                                                                                                                                ",
"                                                                                                                                                                ",
"                                                                                                                                                                ",
"                                                                                                                                                                ",
"                                                                                                                                                                ",
"                                                                                                                                                                ",
"                                                                                                                                                                ",
"                                                                                                                                                                ",
"                                                                                                                                                                ",
"                                                                                                                                                                ",
"                                                                                                                                                                ",
"                                                                                                                                                                ",
"                                                                                                                                                                ",
"                                                                                                                                                                ",
"                                                                          ) ) Q B v                                                                             ",
"                                                                        ) ) ) ! Q A v                                                                           ",
"                                                                      ) ) ) ) ) ) Q B                                                                           ",
"                                                                      ) ) ) ) ) ^ ^ ^                                                                           ",
"                                                                      E Q ^ n u W V r                                                                           ",
"                                                                      v A ^ 2 & V u @                                                                           ",
"                                                                        W ^ n u W V y                                                                           ",
"                                                                          ) ^ ^ ^ Q E                                                                           ",
"                                                              t t J X.      A E ! N 0 b Y                                                                       ",
"                                                            l t t S ( {     3 0 K x 1 f g                                                                       ",
"                                                          o.J d i t f ( @.  = =       q 6 q                                                                     ",
"                                                            [ Y f q q J ' ^ M u - 8 W w e G                                                                     ",
"                                                             .' D d e S T ^ Q x : 8 W f h  .                                                                    ",
"                                                            Z K ' T D       1 :       F G                                                                       ",
"                                                            c Z ..{ Y       u 4 -     / /                                                                       ",
"                                                          v           x B ~ ^ M : 8 Q ~ Q           #.O.} |                                                     ",
"                                                        v             1 8   u 4   4 0 5 3     #.| O.X.| }                                                       ",
"                                                      N v             # %   1 :   3 8 3 2   #.#.| | ] } ]                                                       ",
"                                                      v v                 v C n : 4 K / } } | | | |                                                             ",
"                                                      v                   v z j 9 b ] +.+.| | | }                                                               ",
"                                                    v                       = 2 I } ] | ] ]                                                                     ",
"                                                      v                   } F S ] ] U / H k 9                                                                   ",
"                                                      v v                 | ] ] } U S     1 1 <                                                                 ",
"                                                          v         } | | | R I                 < < 1 < 3 <                                                     ",
"                                                          v B     h | ] U F k r                 < 3 < < 1 <                                                     ",
"                                                            Z u + , R I g 3 3 < * $                   < < <                                                     ",
"                                                            Z 0 o O , 7 5 < < < ; - $                                                                           ",
"                                                              0 X . X : 3 ; < < < - $                                                                           ",
"                                                                      j 0 = ; < = $                                                                             ",
"                                                                      B j = = - % <                                                                             ",
"                                                                      v v   # $     v                                                                           ",
"                                                                    v                 v                                                                         ",
"                                                                    v                 v v                                                                       ",
"                                                                    v                 v v                                                                       ",
"                                                                  v v                   v                                                                       ",
"                                                                v v                       v                                                                     ",
"                                                                N N                         N                                                                   ",
"                                                                z z                         z z                                                                 ",
"                                                                8 3                         4 3                                                                 ",
"                                                                <                             <                                                                 ",
"                                                            < <                                 1 <                                                             ",
"                                                            1 <                                 < <                                                             ",
"                                                            < <                                 < 3                                                             ",
"                                                          1                                     < <                                                             ",
"                                                          <                                     < >                                                             ",
"                                                          <                                     < ; $                                                           ",
"                                                        3 < - #                                 < > - %                                                         ",
"                                                      < < < = $                                 < 3 < = $                                                       ",
"                                                                                                                                                                ",
"                                                                                                                                                                ",
"                                                                                                                                                                ",
"                                                                                                                                                                ",
"                                                                                                                                                                ",
"                                                                                                                                                                ",
"                                                                                                                                                                ",
"                                                                                                                                                                ",
"                                                                                                                                                                ",
"                                                                                                                                                                "
};
