/* XPM */
static char *brick_resized[] = {
/* columns rows colors chars-per-pixel */
"80 80 149 2 ",
"   c #DBB35F",
".  c #CFAF6B",
"X  c #D4AD67",
"o  c #D4AE6B",
"O  c #DAAF6B",
"+  c #D6B464",
"@  c #DAB464",
"#  c #D6B26C",
"$  c #DBB36C",
"%  c #DAB969",
"&  c #CEAE74",
"*  c #D4AE72",
"=  c #DBAF72",
"-  c #D6AD78",
";  c #D6B272",
":  c #DBB372",
">  c #D7BA76",
",  c #DCBB75",
"<  c #D5B47C",
"1  c #DBB57B",
"2  c #D6B97D",
"3  c #DBB97C",
"4  c #E0AF6F",
"5  c #E0B566",
"6  c #E0B26D",
"7  c #E7BE6E",
"8  c #EDBF6E",
"9  c #F2BE6D",
"0  c #E1B473",
"q  c #E5BD75",
"w  c #EDBE74",
"e  c #E0B77E",
"r  c #E4BE7D",
"t  c #EBBE7B",
"y  c #F1BE74",
"u  c #F1BE7A",
"i  c #DEC17C",
"p  c #E7C46E",
"a  c #ECC26E",
"s  c #EEC96E",
"d  c #F3C36E",
"f  c #F3C86C",
"g  c #E5C274",
"h  c #ECC274",
"j  c #EDC874",
"k  c #E5C37C",
"l  c #ECC37B",
"z  c #EDC97B",
"x  c #F3C475",
"c  c #F8C475",
"v  c #F2C974",
"b  c #F3C47B",
"n  c #F9C57C",
"m  c #F2C97B",
"M  c #EED07A",
"N  c #D5B683",
"B  c #DCB683",
"V  c #D7B981",
"C  c #DCBA83",
"Z  c #DCB68A",
"A  c #D6B98E",
"S  c #DDBB8A",
"D  c #DBB690",
"F  c #E0B781",
"G  c #E3BD83",
"H  c #ECBE82",
"J  c #E1B58A",
"K  c #E3BD8A",
"L  c #F0BE82",
"P  c #E7BC93",
"I  c #DCC183",
"U  c #DFC08C",
"Y  c #DBC593",
"T  c #E4C284",
"R  c #EBC483",
"E  c #E6C984",
"W  c #ECC983",
"Q  c #E5C48B",
"!  c #EBC58B",
"~  c #E6C98C",
"^  c #EDCB8C",
"/  c #F3C583",
"(  c #F8C482",
")  c #F2CB85",
"_  c #F9CC83",
"`  c #F1C58A",
"'  c #F9C789",
"]  c #F2CB8C",
"[  c #FDCF8B",
"{  c #EBD183",
"}  c #EED08C",
"|  c #F1D182",
" . c #FBD686",
".. c #F5D883",
"X. c #FDD986",
"o. c #F4D38D",
"O. c #FED58D",
"+. c #FCD98C",
"@. c #E5C392",
"#. c #ECC593",
"$. c #E6C992",
"%. c #EDCC93",
"&. c #E7C69B",
"*. c #EAC59B",
"=. c #E5CA9A",
"-. c #EDCD9B",
";. c #F3C693",
":. c #F2CC93",
">. c #F9CD93",
",. c #F2C79B",
"<. c #F3CC9B",
"1. c #F9CE9C",
"2. c #EED295",
"3. c #EED39B",
"4. c #F4D395",
"5. c #FDD594",
"6. c #F6D995",
"7. c #FCD993",
"8. c #F5D39B",
"9. c #FCD59B",
"0. c #F6DA9C",
"q. c #FBD99C",
"w. c #EAC5A1",
"e. c #EDCDA2",
"r. c #EECFA8",
"t. c #F3CCA2",
"y. c #FACFA3",
"u. c #F2CBA8",
"i. c #EED3A3",
"p. c #EDD8A3",
"a. c #EDD2AC",
"s. c #EDD8AB",
"d. c #F4D3A3",
"f. c #FBD5A3",
"g. c #F6DAA4",
"h. c #FADAA3",
"j. c #F5D4AB",
"k. c #FBD6AB",
"l. c #F5DAAB",
"z. c #FAD9AA",
"x. c #F6D5B3",
"c. c #FBD6B1",
"v. c #F2DAB5",
"b. c #FBDBB3",
"n. c #FBD5B9",
"m. c #F2D8BD",
"M. c #FCE1A5",
"N. c #FEE1A9",
"B. c #F2DBC1",
/* pixels */
"<.W ) ;.] ) M ) ] ) ] ) #.j.g.6.f.q.q.q.q.q.q.q.f.f.4.C T G 3 T r C r r r r r K l.M.0.k.h.0.k.z.g.h.z.f.j.t.^ ) ] :.] %.] :.^ ] ] ^ ^ M.q.h.0.h.0.h.h.q.q.0.q.6.",
"d.k w L t h p l t r w g k g.6.7.9.7.+.7.5.+.5.q.q.q.2.< ; $ : $ : $ : : : = O e z.7.7.q.9.7.X.+.O.+. .7.f.8.E z m s a v s s j z z z ^ f.6.7.7.7.6.5.6.6.5.7.7.4.",
"] h d u h j l l t H t h R f.q.7.9.5.5.9.5.5.5.5.O.5.) : $ $ $ $ $ $ $ $ $ $ @ 0 f.X.O.9.5.O.5.5.5.5.9.O.9.%.j j v / b / n b m b v R ^ k.9.9.9.9.9.9.9.9.q.9.5.>.",
"<.r h t k h h g h j d a g 6.+.X.X.O.O.X.X.O.O.5.5.6.] > : : $ : $ # $ # $ $ O 1 f.O.5.q.5.7.5.5.5.7.5.7.8.2.z j m x b x n b h f s j / q.O.X.X.+.X. .O.5.+. .X. .",
"d.~ W K ! R @.*.*.#.! ! *.x.d.d.f.u.u.d.t.d.f.t.d.t.8.U N 3 S C B V 2 B V C V U s.3.4.d.0.2.2.4.4.4.4.8.r.a.$.R ! W W W E W W #.! Q -.j.j.j.j.d.d.u.j.u.f.j.g.u.",
"S r r G 3 T $.T G k r k r T 3 r r k T R :.] ] ] ] :.:.%.0.8.%.^ %.h.h.h.h.h.h.g.l.0.0.h.g.g.j.z.z.l.x.f.k.l.q.q.q.8.h.f.$.S T g g q k k e 3 r 3 V 8.%.I C r G k ",
"$ = = # : 2 @.1 + @ $ $ : 6 $ : : $ # C :.m m v v m t ` 4.^ ` ) R 0.O.O.O.O.O.O.O.O.O.O.O.5.9.5.+.5.0.5.5.5.5.5.5.5.5.4.G $ $ @ @ $ $ $ 6 $ : 1 < e.E * 3 = * O ",
": : : : : 3 Y : $ $ , : : : : : : $ # C o./ n ` ` ! ! ! %.^ >.] ! f.f.1.9.f.9.q.O.5.5.5.5.9.8.q.0.9.q.8.9.9.9.f.9.9.q.8.K - : 1 1 1 : : 0 : $ 3 < @.P @.G 1 1 - ",
"+ @ $ $ $ # T # @ @ @ @ @ @ @ @ @   + q z j c l b z j j j ) j m l 4.+.+.+.X.X.O.7.5.5.9.5.9.8.9.8.9.q.o. .X.+.+.X.O.o.o.g @ @ @ @ @ + @ @ + + % # C , q # $ O @ ",
"Z Z Z P J Z &.K J B B B B B B B B J B @.<.` ;.! ^ ^ ~ ! Q #.^ ` #.d.8.0.4.9.9.8.4.9.4.5.9.4.8.8.8.8.8.8.d.d.f.8.8.8.1.g.@.V B V B B C C A Z S C A w.C B B F 1 F ",
"9.^ ] ] ] [ } ] ] ] ] ^ ^ 6.] ] %.:.:.^ :.` ] ) ` #.8.f.h.h.9.9.f.k.k.z.k.k.g.f.T G G G G 3 k G G K k S S -.h.h.f.f.f.z.h.f.z.f.h.z.h.h.k.h.M.h.h.k.z.f.f.f.f.q.",
"] k h a h l g g h g h g q { g g g h g g g g w w h r :.q.q.5.5.5.7.7.7.+.7.+.o.5.S - # $ : ; = : = O $ # o :.h.7.7.5.7.7.6.5.O.5.5.9.q.q.7.+.O.o.+.7.q.7.5.5.5.5.",
">.l h p t t x h x h u l l ) l h x h t x l x t y d l :.q.5.5.5.5.7.7.O.5.O.5.O.>.K : 5 5 6 0 $ $ $ $ 0 $ # :.z.5.+.5.5.5.5.5.5.O.5.5.4.q.5.5.5.O.5.5.5.7.5.5.7.5.",
":.k h h h y y y y y y l t ' u u y u y u u y u k p g ] 6.+.O.+.7.+.7.5.5.7.O.O.O.G O @ @ 4 $ $ $ $ $ $ + . 2.q.7.+.7.7.5.5.7.+.O.7.4.4.q.o.O.+.7.7.+.7.7.7.5.7.o.",
"<.! R R ! ! ~ T T T T Q Q -.! K ! K ! T H ! ! R R T 8.h.8.8.8.8.8.1.8.4.4.4.4.0.Q V 2 3 1 B G e e e G 3 B 8.f.8.q.f.8.9.8.<.8.q.8.8.d.d.q.q.9.4.<.8.9.9.9.8.9.8.",
"T C Q G G G 3.h.g.h.h.g.g.h.h.q.q.k.z.f.2.%.%.:.) ] ,.^ ) ) ] ;.:.1.%.%.%.2.%.2.#.%.2.%.:.:.:.K K K K K G K K C K G K K #.K K G K G G G K G K G K ^ K G G G G G ",
"+ # # ; $ o :.q.8.9.9.9.q.5.5.5.5.1.5.5./ q w t q g H w h g l t R ' / b / n / l m / / / L R W : o ; # : $ $ $ $ o ; o , , # # $ $ $ $ @ $ $ $ # o r $ $ $ $ $ $ ",
"$ + $ $ $ $ 4.5.O.+.O.5.q.5.5.5.5.5.>.5.W h h h x w n u x x t x H ] b c b c b n ' ( ( ( n m W , $ $ : $ $ % @ @ % $ O q R $ : : : $ $ $ $ $ $ 1 : ! $ $ $ $ $ $ ",
"+ + $ @ @ # e.h.q.5.q.5.5.5.+.5.+.q.9.q.~ k h a 8 h w g q a 8 l k ) v j j j j v v v v f f x z % + + + ; ; 1 ; # $ $ : e G # : ; ; ; # # + + + % # l @ @ @ + + + ",
"C N 3 B F B -.q.>.5.8.f.8.f.8.q.9.4.4.8.^ T l R R R ! ! ! ! ! ! @.1.#.^ ) ! ` ^ ~ ~ R W ` ! #.C V B B 3 3 3 , > , 3 3 K ^ 3 3 3 3 3 3 3 B B B S Z -.S B B B V C ",
"d.%.:.] :.,.%.^ ^ ^ ;.:.%.4.:.%.] ] ] %.^ ] ] ] ] ] :.:.:.:.:.:.:.:.:.>.:.:.:.:.c.z.z.f.k.f.f.f.h.q.f.h.h.4.G T T k K K K G k 3 C T ~ :.^ ^ :.:.:.:.:.] :.^ ] ^ ",
"] z s s v b R b b z l l z m h a a q t r R l g a h q z z h a a a p p h a a w a g f.7.+.+.5.7.X.+. .+.X.5.q.) * $ # $ 0 : = O # # o o k ^ h a a a a p a a a j a 7 ",
"<.` m m / ' n b b b m ` ` ' R H R d a j l x x l l t ] ` u x x b v b z l u l w H z.q.+.7.9.9.5.5.9.5.5.9.q.] $ : : $ : : 0 6 $ % $ + w ] t b u u b x b l x b b t ",
"] W j v d f v d v j j m j m h h h h h g h l u t l q / l t t t x t t u l l l t W h.0.X.X.7.5.5.5.7.7.7.5.9.` : = $ $ # : $ o @ $ $ X r W t H L t g g a a a p q 8 ",
"t.#.! R ! ! W ! ! W ! ^ *.:.#.#.! ! T T ! ! H R ! H :.! R K ! K H K ! ! ! ` ! ` x.f.9.8.8.y.8.1.1.1.1.f.d.-.Z V V 1 V B Z C B F G 1 K ;.W R / / t T K K T K ! Q ",
"z.q.q.q.q.f.d.f.g.f.f.f.f.f.f.f.f.h.f.g.2.:.:.] ] ^ ] ^ :.%.:.^ :.^ G G G G K G S T G k G G :.f.f.f.f.f.f.f.h.q.q.q.h.f.Q T G R G T H G G G G r C 0.z.g.f.f.h.h.",
"O.O. . . .4.g.0.q.5.5.7.O.X.X.O.X.7.9.4.W q h g h g t g l k R k k k # $ $ $ $ @ + $ $ $ $ o W q.6.6.6.6.6.5.7.7.7.+.7.4.i # # $ @ $ @ @ ; ; $ $ & -.q.5.7.+.+.+.",
"f.y.9.q.f.k.l.z.f.y.9.9.9.9.9.9.9.5.5.8.` 8 d u x t x y l ^ W R R R $ 6 $ 6 6 $ % $ % $ 6 $ ! q.9.9.9.9.5.5.5.7.5.5.6.>.T : $ $ , $ $ $ : : @ $ * -.k.f.q.0.9.7.",
"O.5.5.5.7.6.M.6.o.+.X.O.O.5.O.X.5.7.5.4.W g w t w t R l k l R k l l O $ $ $ $ $ > # $ : : * %.h.q.f.h.M.h.8.q.q.q.5.9.9.r = $ $ $ $ # # $ $ @ $ ; =.q.6.6.5.5.5.",
"4.4.8.8.6.p.m.v.j.d.y.8.8.1.4.4.<.8.1.1.:.K @.R l T U U ~ T Q T Q Q N C V Z B V 2 3 3 : V < ^ q.4.>.q.M.j.l.4.4.u.8.4.8.G N 2 < 1 2 3 3 B F F S A a.9.4.5.4.4.4.",
"k.k.f.f.g.j.x.b.c.k.f.q.f.t.:.] :.:.:.:.:.:.:.%.} %.i.l.g.z.z.z.z.g.l.h.h.h.f.g.E T l r G G T 3 i T 3 S w.j.f.f.f.h.g.g.g.g.z.h.h.z.d.-.:.>.] ] <.-.) ) ^ ` ) R ",
"h.f.q.5.q.0.7.6.+.+.X.7.1.] l v / v v v h v x / z R <.f.o.X. .+.+.+.+.X.X.O.X.o.C ; o $ : $ # : ; : : : 2 8.q.7.9.5.5.5.q.5.5.9.9.5.4.! g h g h g k t t l t t q ",
"h.q.X.O.O.5.9.q.q.9.5.7.4.] v d x / m / / b n c f b >.q.5.9.5.9.9.9.5.5.9.5.5.>.C : $ 6 $ : : : $ : : % = ,.7.X.+.O.O.O.O.O.O.5.5.O.[ ' H L ! ! K t x t h x t t ",
"z.q.+.O.5.9.5.7.5.7.7.6.8.:.m v b b x b x n m v j k <.h.5.5.5.5.7.5.7.6.7.5.5.6.S ; $ @ $ $ $ : + # $ % - t.f.7.5.5.6.9.5.9.7.7.7.5.o.W t x l r y 9 8 x h 8 x 7 ",
"f.f.8.8.8.1.8.4.5.5.4.9.8.,.%.! #.` W W R R R ~ ~ ! %.g.8.>.>.4.8.d.3.4.8.0.0.8.@.< B 3 3 V V C V B B B V <.f.q.8.0.8.3.3.4.9.8.8.8.8.%.R l R l k T l z l l z l ",
"G G G G G G @.T r e C T G G r K r K C T o.) ] :.] ] ] ] ] :.] :.:.d.h.h.q.h.q.f.h.h.h.h.q.h.g.h.g.h.q.q.f.q.h.f.z.9.q.8.E r G G G G K T G t t t G #.P P P P P P ",
"$ # ; $ # ; Q ; O O ; * O : O = $ : o 3 ] m m m m m b l R m b R T f.6.5.6.7.7.9.5.6.5.7.7.6.4.q.6.5.7.7.5.6.7.7.9.5.9.9.G O O o $ o : $ : = 6 $ * T @   @   @ @ ",
"$ $ $ $ $ : Q 1 : : : : 6 6 6 6 6 : $ T ] W b b b v b b v z x / R q.7.5.5.7.7.7.q.5.5.7.7.6.4.7.7.7.7.7.7.7.7.7.5.5.5.4.T $ 6 $ $ $ : $ : : $ 6 ; E 0 0 : 0 0 : ",
"O O O $ $ O Q O O O O $ O $ $ $ $ $ o G ] n c b b v c b c v x v R 8.5.5.5.5.7.5.9.5.5.5.7.5.0.q.5.7.7.5.7.5.7.5.5.5.q.4.r O @ O O $ O O O = O O * Q : : : : : $ ",
"1 e e B F B #.G e F B B G C C 3 1 3 3 P :.! l W R R ^ W R m / ` #.g.f.8.8.9.8.8.y.9.9.8.9.4.8.q.8.9.9.8.8.8.8.8.8.8.8.3.Q 3 e e e e F e 2 3 1 3 2 @.> > > > > , ",
"v.l.h.z.l.g.h.h.f.h.q.M.g.e.^ } :.%.%.%.%.^ 2.%.2.%.r.-.#.%.:.,.:.%.^ ^ ~ ^ ^ %.i.^ W %.^ ^ ] ] ] ] ^ ^ =.a.l.z.k.h.g.z.z.z.l.z.q.l.j.3.%.%.^ o.2.^ 2.%.%.%.2.%.",
"0.X.O.5.7.+.7.7.5.O.7.+.4.] z j z n n b c c n c x c ' b a h a h h a y y y w y x %.g j l g a 9 9 9 9 9 a k 6.+.X.5.+.+.O.+.+.7.7.X.5.4.z x c c x x c c c c c x y ",
"l.9.5.f.9.5.5.5.5.5.5.5.5.;.n c ' z z z z z z l z T ~ E g u x u b u l k k h g W :.w x u x l T l l k l l G <.q.5.9.9.9.5.9.9.q.9.5.9.1.] W z W W W l R / W R R l ",
"h.+.O.5.5.O.5.5.5.5.5.7.>.] m b b x b x m b m c d n ] b a h g h w h y l u t w l :.q w t h h h t y l w h t >.7.o.5.5.O.5.O.+.5.5.X.5.5.) c b b b b b n c b c n x ",
"s.0.4.8.d.4.o.4.4.4.4.o.2.%.z j W z z / R ` ! ` R ! <.! T R ~ T T Q l l l l t R %.g k R k k T R R R ! k T i.3.4.8.8.4.4.4.8.3.8.4.8.p.#.W ` ` ! ) W W W W W ) R ",
"-.,.:.,.<.-.t.%.^ ;.:.,.e.e.-.:.,.%.%.-.z.h.g.h.h.g.x.g.h.z.z.k.j.d.-.-.-.-.-.-.e.%.>.,.%.2.g.z.z.g.z.q.z.f.h.q.h.q.j.d.<.%.:.%.] #.%.:.%.%.%.o.%.i.-.%.%.%.%.-.",
"d d f c x x :.l w w u w 8 a 8 w a h t K f.5.5.O.O.O.O.O.O.O.O.O.7.] w 9 x 9 9 9 a a 8 8 a w :.7.5.5.O.6.5.5.5.9.5.X.4.5.) j f c c v v b b / b m R -.x d x x x v ",
"b b b b b l ,.! H H H u x y x t x h l W q.5.+.5.7.5.5.+.5.5.5.q.6.] l h h l l w l u x t x r %.q.5.5.5.5.5.9.1.9.9.9.f.1.%.! / ' / / m l v v b v z :.b n n c b n ",
"m / l m m l ^ k z g w l b t t l l R K @.h.f.q.9.7.7.7.7.9.9.4.5.6.] k z t g l t l H b l x T :.f.9.9.9.+. .+.7.7.5.X. ...M j s v m s s s z ` ( m R e.) b m / / m ",
"l l z m z R -.#.#.! R l t k l l l R k E 6.4.4.9.9.8.:.8.4.8.8.4.>.] z g h z g z l l l l l T %.d.8.>.>.d.e.e.8.8.1.4.<.8.2.! W R R R ~ ! W l R z ~ =.W R W l l T ",
"d.,.t.<.,.-.e.e.*.,.] %.*.z.c.j.k.f.0.g.z.g.k.h.h.j.d.S $.@.C C K r K P K P K @.j.c.j.k.j.z.f.h.f.q.q.j.z.3.^ ^ ] :.%.^ ^ ^ >.:.<.<.u.n.h.z.z.q.l.B.c.z.z.x.j.k.",
">.g p k z k k g h p h g i 7.7.7.+.6.6.7.7.7.6.9.q.q.<.N =.Y N 2 < : # + + # @ : M.6.+.X.7.q.5.6.0.0.g.0.d.2.W j z z j z z j j f v j z 7.6.5.6.4.0.N.M.8.q.5.O.o.",
",.h a l t l l w a x y l t 5.5.5.O.5.O.O.O.O.O.O.5.5.] 3 V C R 1 $ 4 6 6 6 0 4 0 z.q.O.O.5.5.O.O.5.4.8.O.9.:.m x n x x n x u c c m R W M.5.O.5.5.7.q.0.M.q.5.5.O.",
":.w h k t l l k g h t h t 5.9.5.7.+.5.5.5.5.5.5.5.5.>.< * k , $ O O 4 6 O $ O $ h.7.O.O.7.5.5.5.5.>.9.+.9.>.c v x n x c n x v h l k W q.5.5.5.7.5.6.0.q.6.6.7.o.",
"t.E E $.Q T ! ! R / ! K ~ f.d.8.4.4.8.d.d.8.8.1.1.8.,.S C V V V V 2 1 3 V 3 2 S g.8.6.8.0.3.p.8.d.8.i.2.8.e.~ E ! ! ! ~ ~ ! ! W ! E :.8.8.8.8.d.d.i.8.d.8.8.f.<.",
"%.] ^ #.^ ^ <.] ] ] >.^ %.:.%.^ } { ~ -.z.h.q.f.f.f.h.q.h.h.g.g.0.8.%.] ] ] ] ^ ^ ] ` ' ^ $.3.0.f.g.f.6.h.j.q.6.0.0.q.8.4.%.%.) ] ) >.] ^ ^ ~ %.%.2.^ ` :.] ` :.",
"w x w t w a W z v v l n b n b u c j z ` f.9.5.5.7.O.5.o.7.5.5.q.4.:.t u u w u y y y u u y t 4.q.5.5.5.O.9.9.5.7.9.5.5.5./ r g h q a h h u u t u G ) y w w w w w ",
"h y t t j k <.W b b ( m v m x n b v z ^ f.5.5.O.O.O.O.O.O.O.O.5.5.] w x y y y w l h u y y w ] q.7.O.O.5.5.5.O.5.5.5.9.f.;.H l t l l w l u u a j t :.l z h l l l ",
"y y u u y t %.k z z / l z m m / m n l ^ h.7.q.q.f.q.q.f.f.q.q.f.9.-.l g l l h g l l l x x r :.q.9.q.q.7.5.7.7.7.7.7.q.9.] k h u u u u t u t h h 3 :.l l z k l g ",
"k l l j g k ^ W z z z W W W l l l W W %.h.4.6.8.8.8.9.8.4.9.<.q.8.8.T l l l R R k T R R l R <.q.4.6.5.o.4.4.4.4.o.o.6.4.^ k z g g l z g l R l l T :.l w l l l l ",
"v.v.l.z.k.k.k.k.k.k.k.c.j.t.t.<.<.1.:.,.%.:.:.:.>.:.>.^ ] ] ] ] ^ :.%.:.:.:.:.:.#.C K K K H G G t G r G S d.x.z.f.k.c.c.l.k.z.l.l.l.l.i.<.>.:.>.>.<.3.-.3.e.-.-.",
"0.6.6...O.O.O.5.5.5.5.5.5.) z b v n b m l l m W / z / R q w y t t g q q q g g R K * : = = = O O O O $ $ o ,.f.9.7.5.O.+.X.+.+.7.+.7.o.W z W / n l m c c c v c x ",
"z.f.5.5.9.5.O.5.7.5.5.5.5.] ( n n n c v v v c m / b ) / l x u x t l x x y x w b G $ 0 $ 6 $ $ 6 6 $ 6 % O 1.f.5.+.q.q.7.7.7.9.9.9.5.>.' m v v v f v n m n m n h ",
"q.6.+.X.+.7.7.7.q.5.5.5.5./ z m v m m b v v v j j j ) W w 8 h w h g w h h x q h k X $ @ @ @ @ $ @ $ # @ @ 4.f.5.X.O.+.+.7.7.7.7.7.7.o.R z j b b v v v j j v j h ",
"k.g.d.f.y.f.d.8.8.f.1.t.i.i.%.$.#.^ ! ! ) ^ ! ^ ! P >.#.! K ! H Q ! @.@.@.@.Q #.&.Z Z Z V B B B Z B Z C N r.j.i.8.f.u.d.d.f.d.d.i.i.3.=.*.*.;.#.*.#.! ~ $.~ ~ @.",
"^ ^ ^ ) W ` -.^ W ^ ] ] ] ] ) ) ) ] ^ :.h.q.q.q.q.q.h.f.q.9.q.f.q.8.^ ) ) ) ) ] ~ ] o.^ o.^ :.o.] ] ) ) ^ ] >.] | ) ] ^ } ] | ^ ] o.] ] ] ) ) ) ^ 4.] W ) ) ) ) ",
"p h g g a g ] k g a l h a x 9 y y g k #.f.9.q.9.9.9.5.5.9.q.9.q.q.%.h w w h y w g h p g g g W / j j v n c c c c x v z R ) j v b v x n x m z j j T ] y 9 h y w h ",
"l L L L u u ,.t w x L l l l H t u j z ^ z.5.7.5.5.5.5.7.5.5.5.5.9.] R R R H R t l H u R L R ^ ] ` n n ( / ( ( ] ( b ` ^ ] n n / ( m m / ( n c m R :./ R R u l L ",
"h w g w a q ] l t t u w h w w w w h w l q.O.O.+.+.7.+.X.X.+.+.7.6.} h z z g l g x w w a h g ^ W z b c c x v v b c b b n ' x v j x j v b x c j j l :.j 8 h g h h ",
"H R ` R / l :.! R R / R R R ! R l ! K ! q.4.8.4.8.3.f.1.4.>.4.>.:.<.R R R R R H ! W m l R T ^ ] ! ) ` b / W E W W ~ ~ ^ %.E ! R R W ! ! ! ~ E ^ ~ %.! T R R ! T ",
"1.:.! ] ` :.:.;.` ;.' %.$.d.z.h.g.g.g.h.z.f.g.f.z.j.d.:.:.] :.;.:.:.] ;.:.` ) :.#.G K r G K G K G G G G S i.z.g.q.h.g.g.h.g.h.h.z.g.g.z.z.z.q.0.g.g.g.g.g.g.h.g.",
">.l h q l l k l l l g t t 6.q.5.5.5.5.6.5.4.5.5.5.0.4.` l W z l z z b h z z z z V # $ $ # # $ # o O 1 : ; %.q.6.5.7.5.5.5.7.5.9.9.8.9.f.9.5.5.7.5.5.q.q.5.6.5.5.",
"] l h h z l q l h h x h w 5.5.O.O.O.O.5.5.O.O.O.7.6.o.m l z m z v c j v v v b m i $ 5 6 6 6 6 : $ , $ : ; :.q.5.O.O.O.O.5.O.O.5.5.5.5.q.O.O.O.O.O.5.q.9.5.5.O.[ ",
"<.H k k ! #.>.T T R t r G q.f.9.5.9.5.7.5.9.5.5.9.9.>.` R ! W / R b x l x l x m I o $ O 4 4 : = 1 - C @.N =.h.9.5.5.5.5.5.5.5.9.9.9.4.0.5.5.5.7.8.g.d.f.q.q.5.>.",
"2.T E Q T %.i.=.-.! R T Q 8.8.8.8.4.4.3.8.4.6.1.8.8.1.:.%.~ ^ ` ` ! ! W ! W R ! Q 3 3 V 3 Z F 1 e 2 Q =.A i.d.8.4.5.q.8.d.<.8.8.8.8.0.8.4.8.0.2.3.a.8.2.8.2.8.4.",
"q.q.q.q.q.g.i.f.2.] ) ] ] ] ^ ] ) ] ^ %.4.^ ] ] ] ] #.:.:.] ] ) ] f.f.k.k.k.k.k.q.h.h.q.q.g.8.:.] >.%.-.f.4.^ ] ] / ` %.E r t r t r r r r G T T I j.h.q.q.q.q.q.",
"9.q.6.9.5.9.8.~ l z j l m m l b m b R ` ) t l r r H H H k t l t r 0.X.X.X.X.X.X.9.q.q.9.9.8.>.R t R l R ` q t w w h k R , # @ $ $ # $ @ $ : ; ; & e.q.5.q.5.5.9.",
"7.5.5.5.5.4.-.W b m z b b b x n b n b ] ) y u l l l l t l l l l G 0.f.f.f.9.f.9.7.5.5.5.5.q.8.R l y l l w u y y y x l k k $ $ $ $ $ $ $ $ : 1 : ; e.7.5.5.7.5.5.",
"O.O.O.O.O.4.-.b c x j v c v x x c v h m m q 8 8 8 y w w w y 9 h r 6.7.5.5.O.5.5.5.O.5.5.O.6.4.l y 9 a q w 8 w y u 8 t l r o O $ $ $ $ $ @ O O @ . -.7.5.5.5.O.O.",
"4.9.8.5.5.8.i.! b / ! R R W W W W W T ^ ~ k l R l l R R l l R R Q f.4.>.5.4.4.>.5.8.5.4.8.8.2.R l R R l T R R H H l K ! T 2 1 3 3 1 1 1 : 3 2 3 < -.q.4.4.5.4.9."
};
