/* XPM */
static char *Warrior_Idle_1_resized[] = {
/* columns rows colors chars-per-pixel */
"80 80 209 2 ",
"   c None",
".  c #070018",
"X  c #0D001D",
"o  c #3B1119",
"O  c #0E0021",
"+  c #120022",
"@  c #1B0424",
"#  c #1A0B2A",
"$  c #1D0029",
"%  c #220125",
"&  c #240129",
"*  c #29042C",
"=  c #3E042C",
"-  c #3C092F",
";  c #350728",
":  c #3B1527",
">  c #2D0331",
",  c #2D0A35",
"<  c #330632",
"1  c #340833",
"2  c #271B38",
"3  c #39153B",
"4  c #2C2C2C",
"5  c #25272A",
"6  c #342F2B",
"7  c #2B2A38",
"8  c #343738",
"9  c #343637",
"0  c #33312E",
"q  c #4F100B",
"w  c #54140D",
"e  c #58170E",
"r  c #581C15",
"t  c #4F1814",
"y  c #611E11",
"u  c #6B2514",
"i  c #752A17",
"p  c #772C18",
"a  c #792E19",
"s  c #7C2D16",
"d  c #7D311A",
"f  c #430826",
"g  c #4A0529",
"h  c #4C0A2B",
"j  c #430729",
"k  c #520626",
"l  c #560926",
"z  c #550B28",
"x  c #590B28",
"c  c #421C23",
"v  c #4B1225",
"b  c #52132B",
"n  c #461533",
"m  c #671B28",
"M  c #433D31",
"N  c #593631",
"B  c #67272A",
"V  c #752C29",
"C  c #793329",
"Z  c #693937",
"A  c #753535",
"S  c #4A4033",
"D  c #444238",
"F  c #514834",
"G  c #774636",
"H  c #6B563B",
"J  c #6C432E",
"K  c #292746",
"L  c #333A41",
"P  c #373645",
"I  c #3B354A",
"U  c #4B2B47",
"Y  c #59385C",
"T  c #4E3549",
"R  c #622E44",
"E  c #3C4445",
"W  c #3A454A",
"Q  c #3E4A4D",
"!  c #354144",
"~  c #394F72",
"^  c #414C4E",
"/  c #4C4C47",
"(  c #57544B",
")  c #424D50",
"_  c #484754",
"`  c #465356",
"'  c #4B585D",
"]  c #495559",
"[  c #53595A",
"{  c #49524E",
"}  c #745A57",
"|  c #675549",
" . c #716752",
".. c #4C5B61",
"X. c #515E61",
"o. c #575A69",
"O. c #695278",
"+. c #615271",
"@. c #59656B",
"#. c #586468",
"$. c #5E6D72",
"%. c #646A6C",
"&. c #626F72",
"*. c #637175",
"=. c #68767B",
"-. c #717B7D",
";. c #8B3B1B",
":. c #853817",
">. c #833E35",
",. c #8E411A",
"<. c #934219",
"1. c #894222",
"2. c #944927",
"3. c #9B5327",
"4. c #99532A",
"5. c #854436",
"6. c #955835",
"7. c #A65928",
"8. c #B55F24",
"9. c #A75C31",
"0. c #B96528",
"q. c #A96635",
"w. c #BA7535",
"e. c #AF632B",
"r. c #C47D37",
"t. c #CA7936",
"y. c #CE772E",
"u. c #855C44",
"i. c #8F7652",
"p. c #B57743",
"a. c #A77348",
"s. c #86746B",
"d. c #7C847B",
"f. c #D18B3D",
"g. c #D7873A",
"h. c #CA843A",
"j. c #E58B32",
"k. c #EC953B",
"l. c #9E8145",
"z. c #A58747",
"x. c #B9954B",
"c. c #B58B50",
"v. c #98907F",
"b. c #AE8E6F",
"n. c #CC9446",
"m. c #D59747",
"M. c #CB9757",
"N. c #CD8D49",
"B. c #DFB254",
"V. c #CFA452",
"C. c #E6A749",
"Z. c #F4AC5A",
"A. c #EDBA55",
"S. c #E6B454",
"D. c #F1BE57",
"F. c #ECB050",
"G. c #CA9567",
"H. c #C8A16A",
"J. c #F5B669",
"K. c #F4B970",
"L. c #F5C258",
"P. c #F8C458",
"I. c #FFC572",
"U. c #7C6A88",
"Y. c #6D7D83",
"T. c #747681",
"R. c #727D86",
"E. c #6F648F",
"W. c #897C92",
"Q. c #866E89",
"!. c #728286",
"~. c #75858A",
"^. c #79898E",
"/. c #7A8589",
"(. c #7D8D93",
"). c #7F9095",
"_. c #8A8D85",
"`. c #809196",
"'. c #829498",
"]. c #8A9697",
"[. c #999D93",
"{. c #9CA197",
"}. c #B2B19C",
"|. c #A9A895",
" X c #9093A8",
".X c #9AA3A3",
"XX c #B3AFB6",
"oX c #C6B199",
"OX c #DDC998",
"+X c #F9C885",
"@X c #E5CA98",
"#X c #FCDA9C",
"$X c #F9D494",
"%X c #F4D795",
"&X c #ECD5A3",
"*X c #FBDCA1",
"=X c #FFE3A3",
"-X c #FAE3AB",
";X c #ADACC3",
":X c #C7BBC7",
">X c #BBC4CA",
",X c #BFCAD6",
"<X c #D6D7DD",
"1X c #C9D0C6",
"2X c #D6DBE5",
"3X c #D9E1EC",
"4X c #FDFDFD",
"5X c #F7F9F7",
"6X c #EAECEE",
/* pixels */
"                                                                                                                                                                ",
"                                                                                                                                                                ",
"                                                                                                                                                                ",
"                                                                                                                                                                ",
"                                                                                                                                                                ",
"                                                                                                                                                                ",
"                                                                                                                                                                ",
"                                                                                                                                                                ",
"                                                                                                                                                                ",
"                                                                                                                                                                ",
"                                                                                                                                                                ",
"                                                                                                                                                                ",
"                                                                                                                                                                ",
"                                                                                                                                                                ",
"                                                                                                                                                                ",
"                                                                                                                                                                ",
"                                                                                                                                                                ",
"                                                                                                                                                                ",
"                                                                d d d d d                                                                                       ",
"                                                              d d d d d p i                                                                                     ",
"                                                          :.a a d d d d y y :.d                                                                                 ",
"                                                          V :.:.d d d u q e i d                                                                                 ",
"                                                          d a a d d a e q q y d                                                                                 ",
"                                                        d d :.a d d d ;.,.,.:.u                                                                                 ",
"                                                        a a :.:.d d :.y.j.j.0.e p                                                                               ",
"                                                        s :.a V d <.y.J.J.I.N.e p                                                                               ",
"                                                      d :.V :.a i ,.g.$X-X*Xb.e p                                                                               ",
"                                                      d a a a s t o G @X-Xb.N e a                                                                               ",
"                                                    d d d d :.;.Z 2 2 OX=Xs.# e a                                                                               ",
"                                                    d d d d :.8.H. X~ OX=X_.K w p     5 4                                                                       ",
"                                                    d d d d d 8.+X1X(.&X=X}.o.t a     S 4                                                                       ",
"                                                    d d d d d :.G.-XOX*X*X&Xb.w a     z.4                                                                       ",
"                                                    d d d d d i p.$X*X*X*X$XM.w i w.F.h.4                                                                       ",
"                                                    d d d d d d 8.Z.#X#X*XK.y.w d n.m.e.                                                                        ",
"                                                    d d d d :.s <.t.J.J.c.q.:.u q.n.r.                                                                          ",
"                                                    d d d d d C :.3.k.k.1.t e ;.C.r.                                                                            ",
"                                                    i ;.<.2.F } G 2.K.K.s.T N 7.h.r.                                                                            ",
"                                                    1.7.w.q./ =.} a.$X*X}.*.( 7.7.                                                                              ",
"                                                    m.m.C.n.D Q %.a.Z.#X&X[.%.H 7.0.                                                                            ",
"                                                    x.S.P.B.D ! *.[.N.@X@X}.Y.( 6.7.e.                                                                          ",
"                                                  4 S z.P.S.M 8 *.`._.[.{.].(.=.F 4.0.                                                                          ",
"                                                  / 7 H x.z.D ! o.R.`.`.(.(.`.~.8 J                                                                             ",
"                                                ^.!.^ 6 S M W Q ) @.(.(.(.(.`.~.8 6                                                                             ",
"                                                `.(.%.L 5 5 ! Q Q ` &.&.&.*.*.[ 9 5                                                                             ",
"                                                (.(.(.[ 5     ` Q ^ ` ` ` ` Q 0 4 4 4                                                                           ",
"                                                $.(.).&.      %.W ` $.$.$.$.[ 5 4 9 E                                                                           ",
"                                                ..R.).(.    6X=.W #.^.(.^.`.=.9 0 E Q ^                                                                         ",
"                                              ~.*.@.!.    1X].#.' Y.'.'.'.'.^.#.W Q Q Q                                                                         ",
"                                            (.`.^.[ =.'.  .X_ ( /.'.T.T.T.T.!.v.) W Q Q                                                                         ",
"                                            (.`.(.Y.X..X:XY 3 i.OXXXU R R U | H.U P ` ) )                                                                       ",
"                                              `.(.(.-.>X:X> > p.$XoXj k l j Z n.n P W L L                                                                       ",
"                                              (.`.(.1X5X:X1 < 4.S.M.z l l g V q.n I 7 # #                                                                       ",
"                                              o.@.(.2X<XQ.1 * B q.q.x z z z m C ; 7 # O +                                                                       ",
"                                              # 2 R.;XQ.3 < + < b b z z z z h - @ # + + +                                                                       ",
"                                              X + I  XE.* & + ; g k z x x x g $ + O + + +                                                                       ",
"                                              + @ 2 E.+.* + + j x z z z x x f + +     + +                                                                       ",
"                                              X # W.;XO.& + + f x z z z z x g + +                                                                               ",
"                                              2 T 2X2XU.& + + f x z z z z z ; + +                                                                               ",
"                                              XX;X2X3XQ.& + + f x z x z x ; % + +                                                                               ",
"                                            4X4X4X2X;X+.% + X f x z z z x ; O + +                                                                               ",
"                                            4X4X4X6XQ., + X + f x h - z x ; X X                                                                                 ",
"                                              4X4X4XY + @ c c z x h < z x v c c                                                                                 ",
"                                                    n $ c 3.3.m k h < z l C 3.3.                                                                                ",
"                                                    > - J g.N.C k h - x m 9.f.f.                                                                                ",
"                                                    > B r.A.A.>.k h 1 h >.m.A.A.                                                                                ",
"                                                    * 5.C.L.D.>.g - 1 j w.F.L.L.                                                                                ",
"                                                    , u.A.D.D.>.j > 1 1 p.A.L.L.                                                                                ",
"                                                    P ( c.P.P.>.j > 1 1 | M.L.L.                                                                                ",
"                                                    Q W  .V.V.Z j > 1 > P l.B.D.                                                                                ",
"                                                    Q Q Q  .Z n 1 > 1 1 P (  .                                                                                  ",
"                                                    ..X...W , > 1 1 1 1 Q ....                                                                                  ",
"                                                    !.!.&.Q     1 > > , @.^.!.                                                                                  ",
"                                                    `.'.R.)       < < 1 T.'.`.                                                                                  ",
"                                                    (.(.(.          <   (.).(.                                                                                  ",
"                                                    '.(.'.              ).(.).                                                                                  ",
"                                                    ^.(.^.              ).(.^.                                                                                  ",
"                                                    @.@.@.              ).-.#.^                                                                                 ",
"                                                    Q ^ Q               ).$.W Q                                                                                 ",
"                                                                                                                                                                ",
"                                                                                                                                                                "
};
