/* XPM */
static char *Warrior_Idle_3_resized[] = {
/* columns rows colors chars-per-pixel */
"80 80 207 2 ",
"   c None",
".  c #0C001C",
"X  c #3A111A",
"o  c #0F0022",
"O  c #120022",
"+  c #1B0323",
"@  c #1B0128",
"#  c #1B0C2C",
"$  c #180927",
"%  c #1E152E",
"&  c #28062A",
"*  c #350629",
"=  c #3C1923",
"-  c #2E0835",
";  c #320632",
":  c #330934",
">  c #3B0730",
",  c #281D3B",
"<  c #3B1338",
"1  c #25282B",
"2  c #2B2C2C",
"3  c #242528",
"4  c #39322C",
"5  c #36213D",
"6  c #2D3133",
"7  c #353A3B",
"8  c #333535",
"9  c #292739",
"0  c #4D0F0A",
"q  c #4E110B",
"w  c #53140C",
"e  c #5C190F",
"r  c #5A1B14",
"t  c #621E11",
"y  c #59241A",
"u  c #6E2615",
"i  c #662112",
"p  c #732A17",
"a  c #7A2E19",
"s  c #752A16",
"d  c #7D311A",
"f  c #6C301E",
"g  c #420526",
"h  c #430826",
"j  c #43052B",
"k  c #44082C",
"l  c #4C0A2B",
"z  c #4D0628",
"x  c #520626",
"c  c #560B28",
"v  c #580C28",
"b  c #510728",
"n  c #441A23",
"m  c #561028",
"M  c #471937",
"N  c #611729",
"B  c #592A26",
"V  c #5C2637",
"C  c #443D33",
"Z  c #5F323B",
"A  c #6A262A",
"S  c #752B29",
"D  c #7B3327",
"F  c #6A3838",
"G  c #743F3B",
"H  c #454137",
"J  c #584E37",
"K  c #77472B",
"L  c #61463A",
"P  c #725039",
"I  c #2A2747",
"U  c #353D44",
"Y  c #393447",
"T  c #47264B",
"R  c #5A395D",
"E  c #4F3061",
"W  c #3C414B",
"Q  c #3E4A4D",
"!  c #3A4446",
"~  c #394F73",
"^  c #414B4D",
"/  c #46464A",
"(  c #58594B",
")  c #414E50",
"_  c #4B4B5A",
"`  c #475356",
"'  c #485559",
"]  c #555B5A",
"[  c #4D4C49",
"{  c #5E6252",
"}  c #76605B",
"|  c #70694F",
" . c #4D5C61",
".. c #515E61",
"X. c #575A69",
"o. c #654668",
"O. c #6F5478",
"+. c #546164",
"@. c #59666A",
"#. c #586366",
"$. c #5E6D72",
"%. c #616D73",
"&. c #6C6778",
"*. c #736B77",
"=. c #627175",
"-. c #68767A",
";. c #787B7C",
":. c #666A6E",
">. c #6F4D4D",
",. c #81341A",
"<. c #883A1C",
"1. c #903E19",
"2. c #813E36",
"3. c #97471B",
"4. c #A4521B",
"5. c #894626",
"6. c #984A23",
"7. c #9A5327",
"8. c #9D572A",
"9. c #934D34",
"0. c #965536",
"q. c #854B36",
"w. c #A75B29",
"e. c #B25C23",
"r. c #83603D",
"t. c #BB6727",
"y. c #A76438",
"u. c #B97939",
"i. c #AF723D",
"p. c #C37B36",
"a. c #D57E2E",
"s. c #8B7E52",
"d. c #A56742",
"f. c #A27D4A",
"g. c #A87A53",
"h. c #86756C",
"j. c #A07968",
"k. c #BA833E",
"l. c #CE8C3F",
"z. c #D28B3C",
"x. c #E78C32",
"c. c #EC9339",
"v. c #A68747",
"b. c #B0924F",
"n. c #998D76",
"m. c #AE9678",
"M. c #C88846",
"N. c #CC9445",
"B. c #D89B48",
"V. c #C28C58",
"C. c #D2964B",
"Z. c #DFB254",
"A. c #CFA453",
"S. c #F1AC5C",
"D. c #ECB854",
"F. c #F2BE56",
"G. c #E6A649",
"H. c #C99F73",
"J. c #D5A87A",
"K. c #CFA677",
"L. c #ECB46D",
"P. c #F0B46C",
"I. c #F5C258",
"U. c #F9C559",
"Y. c #FFC97C",
"T. c #7E6888",
"R. c #6D7D83",
"E. c #707E83",
"W. c #867D8E",
"Q. c #738287",
"!. c #78878C",
"~. c #7A898E",
"^. c #768488",
"/. c #7D8E93",
"(. c #7F9196",
"). c #878C8A",
"_. c #979381",
"`. c #809095",
"'. c #859496",
"]. c #93988B",
"[. c #9DA094",
"{. c #B2B09C",
"}. c #989AA7",
"|. c #8F92A2",
" X c #A097B0",
".X c #BAB2B7",
"XX c #C6AE8C",
"oX c #DDC99D",
"OX c #FFD485",
"+X c #E2C796",
"@X c #E9D59D",
"#X c #FAD698",
"$X c #EAD3A2",
"%X c #FCDDA1",
"&X c #F5DBA6",
"*X c #FFE3A4",
"=X c #BFBED8",
"-X c #C5BBC7",
";X c #BBC5D2",
":X c #D6D8DA",
">X c #D2D0CE",
",X c #D5DBE6",
"<X c #DAE0EB",
"1X c #E4E1E5",
"2X c #FDFDFD",
"3X c #F0F0F4",
"4X c #EFF1F4",
/* pixels */
"                                                                                                                                                                ",
"                                                                                                                                                                ",
"                                                                                                                                                                ",
"                                                                                                                                                                ",
"                                                                                                                                                                ",
"                                                                                                                                                                ",
"                                                                                                                                                                ",
"                                                                                                                                                                ",
"                                                                                                                                                                ",
"                                                                                                                                                                ",
"                                                                                                                                                                ",
"                                                                                                                                                                ",
"                                                                                                                                                                ",
"                                                                                                                                                                ",
"                                                                                                                                                                ",
"                                                                                                                                                                ",
"                                                                                                                                                                ",
"                                                                                                                                                                ",
"                                                                                                                                                                ",
"                                                                                                                                                                ",
"                                                              d d d d d d                                                                                       ",
"                                                              d d d d d p p                                                                                     ",
"                                                          d d d d d d d e i d d                                                                                 ",
"                                                          d d d d a a i q w u d                                                                                 ",
"                                                          a ,.d d ,.,.e w w t a                                                                                 ",
"                                                        d d a d a 3.e.7.4.4.3.i a                                                                               ",
"                                                      d d d d d p <.a.x.c.x.e.w p                                                                               ",
"                                                      d d d d d r = K L.Y.g.y 0 e p                                                                             ",
"                                                    d d d d d ,.Z , , +X*Xh.# 0 0 p ,.                                                                          ",
"                                                  d d d d d ,.s j.|.~ +X*X).I q 0 u                                                                             ",
"                                                  d d d d d d 1.J.>X/.@X*X{.X.q 0 u f                                                                           ",
"                                                  d d d d d d t.L.*XoX%X%X$Xm.q q p B 2 2                                                                       ",
"                                                  d d d d d d e.L.*X%X%X%X*XJ.q 0 u K J 4                                                                       ",
"                                                  d d d d d d d b.%X%X%X%X*XH.q q u u.v.2                                                                       ",
"                                                  d d d a a d s 0.J.%X%X%XOXV.q t 8.z.v.                                                                        ",
"                                                  d d d ,.,.d D ,.d.#X#X&XP.t.w ,.C.z.e.                                                                        ",
"                                                    d <.7.3.L } q.6.S.S.XXn.K a u.l.p.                                                                          ",
"                                                    5.w.t.y.[ =.} w.c.c.m.-.[ 5.B.l.                                                                            ",
"                                                    N.B.Z.N.H Q %.g.c.P.+X].#.L u.                                                                              ",
"                                                    A.Z.U.Z.H 7 $._.C.+X@X{.Q.] w.                                                                              ",
"                                                    J v.U.Z.H 7 $.`._.[.[.'./.;.y.t.                                                                            ",
"                                                    3 P b.v.H ! X.Q././././.`.).q.5.K                                                                           ",
"                                              `.^.8 2 4 H H ! Q ) @././././.`.^.H 4 4 2                                                                         ",
"                                            `.`.!.] 8 1 3 1 Q Q Q ' $.$.=.%.%.] 6 1 6 7                                                                         ",
"                                            /.~./.!./ 1 2     ^ Q Q ` ` ) ' ^ 6 2 2 7 Q Q                                                                       ",
"                                              =.`.(./ 3       ^ Q ' $.$.$.%.#.    7 ! ` Q                                                                       ",
"                                            ' #.~././         ` Q ../././.~.~.    Q Q Q Q                                                                       ",
"                                            Q.$.@.~.#.      2X-.!  ././.`.`.`.      ^ Q ` Q                                                                     ",
"                                          /.`.E. .E.        :X-./ @.`.`.(././.        Q U !                                                                     ",
"                                          /././.-...      >X!.'  .E.`.`.(.(././.      U % %                                                                     ",
"                                          `.`.`.~.'       |./ ( ).}.*.*.*.&.;._.      9 O O                                                                     ",
"                                          `.`././.      -XT < f.@X.XT T V M >.A.M     $ O O                                                                     ",
"                                          X.X.=.`.    2X-X; ; i.Y.XXk c x g F M.M     O O O                                                                     ",
"                                          # # Y ~.  2X2X.X: : q.G.b.c c v z S w.M       O O                                                                     ",
"                                          o . # _ :X4X;X*.; & m 0.9.m c v v N A &       O O                                                                     ",
"                                          O O O T 1X<XT.> ; @ - l m c c v m l ; +                                                                               ",
"                                          O . ,  X3X=Xo.& @ O * z c c c v v h @ O                                                                               ",
"                                          O @ &.2X3X XE & O O h v c c c c v h O O                                                                               ",
"                                            W.>X2X2XW.- O O O h m c c c v m h O O                                                                               ",
"                                              2X2X3Xo.+ O O O h v v v c v x * O O                                                                               ",
"                                              2X3X,Xo.+ O o o * c c c c v * + . O                                                                               ",
"                                            2X2X3X XT O + = n m c c l c c l n n +                                                                               ",
"                                              2X1XR & o = 7.7.A c l > c c D 7.7.                                                                                ",
"                                              2X:X< O & D z.z.D x l ; x x 9.z.z.                                                                                ",
"                                                  : $ B u.D.D.2.b l ; b b y.F.D.                                                                                ",
"                                                  ; , P G.I.F.q.b l ; k z d.U.I.                                                                                ",
"                                                  ; Y v.D.F.F.2.b z ; ; k d.I.I.                                                                                ",
"                                                  ; Y { b.U.F.G j z ; - < v.U.F.                                                                                ",
"                                                  : Y Q { A.C.F j z ; ; Y s.Z.F.                                                                                ",
"                                                    Q Q ` | Z < k z ; : Y { |                                                                                   ",
"                                                     . .' W - : k k ; ; _ '  .                                                                                  ",
"                                                    Q.!.=.W : : ; : ;   Q.^.Q.                                                                                  ",
"                                                    `.`.^.W : ; : ; ;   '.(.`.                                                                                  ",
"                                                    /./.(.  ; ; ; ;     /././.                                                                                  ",
"                                                    `.`.`.    ; ;       /./.`.                                                                                  ",
"                                                    ~.~./.    ; :       /./.~.                                                                                  ",
"                                                    @.@.@.              `.-.+.)                                                                                 ",
"                                                    ^ Q Q               `.$.Q Q                                                                                 ",
"                                                                                                                                                                ",
"                                                                                                                                                                "
};
