/* XPM */
static char *Warrior_Idle_5_resized[] = {
/* columns rows colors chars-per-pixel */
"80 80 212 2 ",
"   c None",
".  c #0D001D",
"X  c #23071E",
"o  c #0F0022",
"O  c #120022",
"+  c #1C0225",
"@  c #1B0E2D",
"#  c #25012A",
"$  c #2B032D",
"%  c #2E0B29",
"&  c #360526",
"*  c #2E0533",
"=  c #330631",
"-  c #340B35",
";  c #3C0E36",
":  c #231532",
">  c #3A1033",
",  c #391927",
"<  c #2C2C2B",
"1  c #252526",
"2  c #302F2C",
"3  c #31302E",
"4  c #29253A",
"5  c #2A293A",
"6  c #2F3132",
"7  c #323434",
"8  c #363A3B",
"9  c #36263F",
"0  c #53140D",
"q  c #5C1A0E",
"w  c #4A1A1C",
"e  c #4B0D0A",
"r  c #621E11",
"t  c #611F0F",
"y  c #582018",
"u  c #6D2615",
"i  c #672315",
"p  c #7B2E14",
"a  c #772C18",
"s  c #7A2E19",
"d  c #742916",
"f  c #7D311A",
"g  c #74321C",
"h  c #410426",
"j  c #420826",
"k  c #43082C",
"l  c #4B092B",
"z  c #4A0629",
"x  c #520526",
"c  c #550B28",
"v  c #580C28",
"b  c #550827",
"n  c #431825",
"m  c #561629",
"M  c #441437",
"N  c #591833",
"B  c #681A27",
"V  c #562426",
"C  c #4C2936",
"Z  c #433D31",
"A  c #532E2D",
"S  c #712727",
"D  c #773728",
"F  c #6E2C2F",
"G  c #42413A",
"H  c #584533",
"J  c #774832",
"K  c #6D5D3B",
"L  c #7D693F",
"P  c #392C47",
"I  c #373945",
"U  c #373A55",
"Y  c #2C3051",
"T  c #411B43",
"R  c #462F4C",
"E  c #3C454A",
"W  c #3E4A4D",
"Q  c #394447",
"!  c #3E4B50",
"~  c #414C4E",
"^  c #484849",
"/  c #5C554A",
"(  c #464B53",
")  c #4B5559",
"_  c #4D595D",
"`  c #445054",
"'  c #545250",
"]  c #685E4A",
"[  c #6E514B",
"{  c #6A6955",
"}  c #495B63",
"|  c #525F62",
" . c #4F4962",
".. c #664769",
"X. c #6A5C6D",
"o. c #644977",
"O. c #685973",
"+. c #705E6C",
"@. c #546165",
"#. c #586164",
"$. c #59666A",
"%. c #59676B",
"&. c #5C6D72",
"*. c #656A76",
"=. c #6C797D",
"-. c #697579",
";. c #797273",
":. c #6D6B68",
">. c #84371B",
",. c #833A2F",
"<. c #9A481C",
"1. c #8E401E",
"2. c #AB561D",
"3. c #B35D1E",
"4. c #854729",
"5. c #994B25",
"6. c #9A5229",
"7. c #844135",
"8. c #8D5637",
"9. c #A65C2A",
"0. c #AA5925",
"q. c #A95C2E",
"w. c #AA602C",
"e. c #B66329",
"r. c #A96739",
"t. c #B76E36",
"y. c #BA7637",
"u. c #C27734",
"i. c #C26722",
"p. c #865D47",
"a. c #8D7541",
"s. c #907853",
"d. c #A7774B",
"f. c #837973",
"g. c #C8843B",
"h. c #D48839",
"j. c #E5913F",
"k. c #978552",
"l. c #B8894B",
"z. c #B79359",
"x. c #BF875B",
"c. c #9A8B75",
"v. c #A0886F",
"b. c #C78642",
"n. c #D59442",
"m. c #DA9943",
"M. c #C19F54",
"N. c #EC9C47",
"B. c #F29E44",
"V. c #D1A852",
"C. c #D1A252",
"Z. c #E9A54C",
"A. c #F3A24A",
"S. c #E3A856",
"D. c #E8B755",
"F. c #F1BE57",
"G. c #F1BB54",
"H. c #EEB04C",
"J. c #C69768",
"K. c #E6B57C",
"L. c #F5C157",
"P. c #F8C459",
"I. c #FBC677",
"U. c #4A6483",
"Y. c #776385",
"T. c #6D7C81",
"R. c #727C84",
"E. c #7B739A",
"W. c #867B95",
"Q. c #75858B",
"!. c #78878C",
"~. c #7A898E",
"^. c #798682",
"/. c #7D8D92",
"(. c #7F9094",
"). c #7C9098",
"_. c #819296",
"`. c #839499",
"'. c #8E989A",
"]. c #8E8F90",
"[. c #9EA190",
"{. c #ACAB98",
"}. c #99A2A5",
"|. c #B5ABB8",
" X c #AEB3B1",
".X c #C8B08B",
"XX c #EBBB80",
"oX c #C5BEA1",
"OX c #CDC09C",
"+X c #F9C985",
"@X c #FCD18C",
"#X c #FFD386",
"$X c #E2C594",
"%X c #E7C996",
"&X c #F6D698",
"*X c #EFD49F",
"=X c #C9C1A2",
"-X c #FDDDA0",
";X c #F3D8A2",
":X c #FFE3A5",
">X c #B8B7C7",
",X c #AAB3C3",
"<X c #C8BCC8",
"1X c #C8C6D6",
"2X c #CDD4DB",
"3X c #DADADD",
"4X c #C9CECE",
"5X c #E3E1C2",
"6X c #DEDFE6",
"7X c #E3E3EA",
"8X c #FDFDFD",
"9X c #EEECF0",
/* pixels */
"                                                                                                                                                                ",
"                                                                                                                                                                ",
"                                                                                                                                                                ",
"                                                                                                                                                                ",
"                                                                                                                                                                ",
"                                                                                                                                                                ",
"                                                                                                                                                                ",
"                                                                                                                                                                ",
"                                                                                                                                                                ",
"                                                                                                                                                                ",
"                                                                                                                                                                ",
"                                                                                                                                                                ",
"                                                                                                                                                                ",
"                                                                                                                                                                ",
"                                                                                                                                                                ",
"                                                                                                                                                                ",
"                                                                                                                                                                ",
"                                                                                                                                                                ",
"                                                                                                                                                                ",
"                                                                                                                                                                ",
"                                                                                                                                                                ",
"                                                                                                                                                                ",
"                                                              f f f >.f f                                                                                       ",
"                                                              f f f f f u u                                                                                     ",
"                                                          f f f f f f f q r f f                                                                                 ",
"                                                          f f f f f a r e 0 i f                                                                                 ",
"                                                          f f f f f f r q q i a                                                                                 ",
"                                                        f f f f f a f 2.3.3.<.t a                                                                               ",
"                                                      f f f f f >.>.5.N.B.A.u.0 a                                                                               ",
"                                                        f f f f p <.u.I.+X#XJ.0 a                                                                               ",
"                                                      f f f f f r s y.&X-X$Xd.0 a                                                                               ",
"                                                    f f f f f f w # C $X:Xv., 0 a                                                                               ",
"                                                    f f f f f <.p.( Y $X:Xf.@ 0 s                                                                               ",
"                                                    f f f s >.i.+X|.U.%X:X'.U 0 s     3 3                                                                       ",
"                                                    f f f f f 2.XX5X[.;X-X=X;.0 s     K <                                                                       ",
"                                                    f f f f f p x.;X;X;X-X-XJ.0 g   P.l.3                                                                       ",
"                                                    f f f f f a t.I.-X-X:X@Xb.0 d g.Z.y.                                                                        ",
"                                                    f f f f f a 0.N.&X@X%XS.0.q 4.m.h.w.                                                                        ",
"                                                    f f f f >.p >.i.A.Z.r.D p a b.g.y.                                                                          ",
"                                                    a >.>.>.D J D 5.B.B.J w y 5.m.u.                                                                            ",
"                                                    a 1.0.6.H *.p.6.+X+Xc.) A 0.y.                                                                              ",
"                                                    w.t.g.y.^ &.+.d.+X;X=X^.{ 8.0.                                                                              ",
"                                                    S.D.H.V.G Q *.v.A.&X;X{.*./ 9.e.                                                                            ",
"                                                    a.V.P.D.Z 8 &.].J..XoX{.Q.@.J 0.e.                                                                          ",
"                                                  7 3 a.L.V.G I %._.]._._._./.^.8 4.e.                                                                          ",
"                                                ^.#.7 H a.L G Q _ -.)././._.`.!.7 H                                                                             ",
"                                                ~.~.( 2 2 3 E ~ W } !.!.!.!.!.=.7 2                                                                             ",
"                                                _._.=.~ 1     ~ W ( | @.@.@.| ^ 3 <                                                                             ",
"                                                Q./._.#.1     _ W ! ) _ ) ) ( < < 6 7                                                                           ",
"                                                @.!._.=.    8X=.Q _ =.=.T.T.-.  < 8 W !                                                                         ",
"                                                @.-.!.      4X-.W &.)._.).).`.  8 Q ~ W                                                                         ",
"                                              /.T.| R.    >X-.~ @.!.(.(.(._.`.R.~ E W ~                                                                         ",
"                                            /._./.$.%.'.4XW.I ] [.}.:.+.+.X.;.c.^ E ! !                                                                         ",
"                                            /._./.!.#.}.<XT - l.&X X; N N M [ C.C P ! ! W                                                                       ",
"                                              _.)._.'.3X<X= = r.I..Xk c b h F g.M I I 5 5                                                                       ",
"                                              !.!./.2X8X|.- = ,.n.l.c c c b S 6.> I 5 O O                                                                       ",
"                                              U ( /.2X>XX.* # m 7.7.v c c c m B % : @ o o                                                                       ",
"                                              O @ *.,XY.$ * O # k v v c c v l % O O o O O                                                                       ",
"                                              O O : E.o.# + O O & c c c c v k + O   O O O                                                                       ",
"                                              . @ R E.o.# O O o & v c c c c k o O     O O                                                                       ",
"                                              . : |.1XY.# O O o & v c c c v j O O                                                                               ",
"                                              ..*.6X>X..# o o X & v c v c v & O O                                                                               ",
"                                              3X3X2Xo.; # O O & v v c c v m j + O                                                                               ",
"                                            8X8X8X7X..+ % V V v v c c c c B S w +                                                                               ",
"                                              8X8X9X..# n 9.9.S x c c c c ,.w.0.                                                                                ",
"                                                7X].R k 4.m.n.D b l k c S w.m.m.                                                                                ",
"                                                  - = F b.F.G.,.x l - c 5.n.F.F.                                                                                ",
"                                                  = $ 8.H.P.F.7.x l - c y.G.P.F.                                                                                ",
"                                                  = * p.D.F.F.,.x l = c l.D.L.L.                                                                                ",
"                                                  = 9 ' k.F.P.7.b l =   / z.P.L.                                                                                ",
"                                                  = ( } :.M.z.F l l -   } ;.V.L.                                                                                ",
"                                                    T.^.=./ C M l l %   ^.:.]                                                                                   ",
"                                                    _.`.=.P $ $ k l =   `.=.}                                                                                   ",
"                                                    (.).*.- = = =       /./.!.                                                                                  ",
"                                                    _._.R.= = =         /.).`.                                                                                  ",
"                                                    !././.  =           /./.!.                                                                                  ",
"                                                    %.%.%.              _.T.| ~                                                                                 ",
"                                                    ~ ! !               _.&.W W                                                                                 ",
"                                                                                                                                                                ",
"                                                                                                                                                                "
};
