/* XPM */
static char *wall_mid_resized[] = {
/* columns rows colors chars-per-pixel */
"80 80 254 2 ",
"   c #1D1F1F",
".  c #1E1F1F",
"X  c #1E2020",
"o  c #1F2020",
"O  c #202020",
"+  c #202021",
"@  c #202121",
"#  c #212121",
"$  c #212122",
"%  c #212222",
"&  c #222222",
"*  c #232222",
"=  c #232323",
"-  c #242323",
";  c #242423",
":  c #252423",
">  c #242324",
",  c #242424",
"<  c #252424",
"1  c #262424",
"2  c #262524",
"3  c #262525",
"4  c #272525",
"5  c #272625",
"6  c #272526",
"7  c #272626",
"8  c #282625",
"9  c #282626",
"0  c #292626",
"q  c #292726",
"w  c #292727",
"e  c #2A2727",
"r  c #2A2827",
"t  c #2B2827",
"y  c #2B2828",
"u  c #2C2828",
"i  c #2C2928",
"p  c #2D2928",
"a  c #2C2929",
"s  c #2D2929",
"d  c #2D2A29",
"f  c #2E2A29",
"g  c #2E2A2A",
"h  c #2F2A2A",
"j  c #2F2B2A",
"k  c #2F2B2B",
"l  c #302B2A",
"z  c #302B2B",
"x  c #302C2A",
"c  c #302C2B",
"v  c #312C2B",
"b  c #322D2B",
"n  c #312C2C",
"m  c #322C2C",
"M  c #322D2C",
"N  c #332D2C",
"B  c #332D2D",
"V  c #332E2C",
"C  c #342E2C",
"Z  c #342E2D",
"A  c #342F2D",
"S  c #352F2D",
"D  c #342E2E",
"F  c #352E2E",
"G  c #352F2E",
"H  c #362F2E",
"J  c #362F2F",
"K  c #372F2F",
"L  c #36302E",
"P  c #37302E",
"I  c #37302F",
"U  c #373030",
"Y  c #383030",
"T  c #383130",
"R  c #393130",
"E  c #393131",
"W  c #3A3131",
"Q  c #3A3230",
"!  c #3A3330",
"~  c #3A3231",
"^  c #3A3331",
"/  c #3B3331",
"(  c #3B3232",
")  c #3B3332",
"_  c #3C3332",
"`  c #3C3333",
"'  c #3C3432",
"]  c #3D3432",
"[  c #3D3532",
"{  c #3D3433",
"}  c #3D3533",
"|  c #3E3433",
" . c #3E3533",
".. c #3F3633",
"X. c #3E3434",
"o. c #3E3534",
"O. c #3F3534",
"+. c #3F3535",
"@. c #3F3634",
"#. c #403535",
"$. c #403634",
"%. c #403734",
"&. c #413734",
"*. c #403635",
"=. c #413635",
"-. c #413735",
";. c #413636",
":. c #413736",
">. c #423736",
",. c #433737",
"<. c #413835",
"1. c #423835",
"2. c #433835",
"3. c #423836",
"4. c #433836",
"5. c #433936",
"6. c #433837",
"7. c #443936",
"8. c #443837",
"9. c #443937",
"0. c #443A37",
"q. c #453A37",
"w. c #463A37",
"e. c #443838",
"r. c #443938",
"t. c #453938",
"y. c #463939",
"u. c #453A38",
"i. c #463A38",
"p. c #463B38",
"a. c #463A39",
"s. c #473A39",
"d. c #473B39",
"f. c #473A3A",
"g. c #473B3A",
"h. c #483B39",
"j. c #483B3A",
"k. c #493B3A",
"l. c #493B3B",
"z. c #483C3A",
"x. c #493C3A",
"c. c #493C3B",
"v. c #4A3D3A",
"b. c #4A3C3B",
"n. c #4A3D3B",
"m. c #4B3D3B",
"M. c #4A3E3A",
"N. c #4B3E3B",
"B. c #4C3E3B",
"V. c #4C3F3B",
"C. c #4B3D3C",
"Z. c #4C3E3C",
"A. c #4D3F3C",
"S. c #4D3E3D",
"D. c #4E3F3D",
"F. c #4E403D",
"G. c #4F403D",
"H. c #4F413D",
"J. c #4E403E",
"K. c #4F403E",
"L. c #4F413E",
"P. c #50413E",
"I. c #51413E",
"U. c #51413F",
"Y. c #51423E",
"T. c #51423F",
"R. c #52423F",
"E. c #53433F",
"W. c #53443F",
"Q. c #524240",
"!. c #534240",
"~. c #534340",
"^. c #534341",
"/. c #544341",
"(. c #534440",
"). c #544440",
"_. c #554540",
"`. c #544441",
"'. c #564641",
"]. c #554542",
"[. c #564542",
"{. c #574642",
"}. c #584742",
"|. c #584643",
" X c #584743",
".X c #594743",
"XX c #594744",
"oX c #5A4744",
"OX c #594843",
"+X c #5A4844",
"@X c #5A4944",
"#X c #5B4845",
"$X c #5B4945",
"%X c #5C4945",
"&X c #5C4946",
"*X c #5C4A46",
"=X c #5D4A46",
"-X c #5E4B46",
";X c #5E4A47",
":X c #5E4B47",
">X c #5F4B47",
",X c #5F4C47",
"<X c #5F4B48",
"1X c #604C47",
"2X c #604B48",
"3X c #604C48",
"4X c #604D48",
"5X c #614D48",
"6X c #614D49",
"7X c #624E49",
"8X c #634E49",
"9X c #644F4A",
"0X c #654F4A",
"qX c #654F4B",
"wX c #65504B",
"eX c #66504B",
"rX c #66514B",
"tX c #67514B",
"yX c #67514C",
"uX c #68514C",
"iX c #68514D",
"pX c #68524C",
"aX c #69524C",
"sX c #68524D",
"dX c #69524D",
"fX c #69534D",
"gX c #6A524D",
"hX c #6A534D",
"jX c #6A534E",
"kX c #6B534E",
"lX c #6B544E",
"zX c #6C544F",
"xX c #6E5650",
"cX c #6F5650",
"vX c #6F5651",
"bX c #6F5751",
"nX c #705751",
"mX c #715751",
"MX c #715851",
"NX c #715852",
"BX c #725852",
"VX c #725952",
"CX c #735953",
"ZX c #745A53",
"AX c #755A54",
"SX c #755B54",
"DX c #765C55",
"FX c #775C55",
"GX c #785D55",
"HX c #795D56",
"JX c #7A5E57",
"KX c #7B5F57",
"LX c #7C6058",
"PX c #7D6058",
/* pixels */
"JXJXJXKXLXPXKXSXpX_.-.M i M -._.pXSXKXPXLXKXJXJXJXJXJXJXJXJXJXJXJXJXJXJXJXJXKXLXPXKXSXpX_.-.M i M -._.pXSXKXPXLXKXJXKXLXPXKXSXpX_.-.M i M -._.pXSXKXPXLXKXJXJXJX",
"GXGXGXHXJXKXHXCXrX).&.b u b &.).rXCXHXKXJXHXGXGXGXGXGXGXGXGXGXGXGXGXGXGXGXGXHXJXKXHXCXrX).&.b u b &.).rXCXHXKXJXHXGXHXJXKXHXCXrX).&.b u b &.).rXCXHXKXJXHXGXGXGX",
"ZXZXZXSXDXFXSXnX8XR.@.v t v @.R.8XnXSXFXDXSXZXZXZXZXZXZXZXZXZXZXZXZXZXZXZXZXSXDXFXSXnX8XR.@.v t v @.R.8XnXSXFXDXSXZXSXDXFXSXnX8XR.@.v t v @.R.8XnXSXFXDXSXZXZXZX",
"xXxXxXcXnXmXcXhX-XF.] l r l ] F.-XhXcXmXnXcXxXxXxXxXxXxXxXxXxXxXxXxXxXxXxXxXcXnXmXcXhX-XF.] l r l ] F.-XhXcXmXnXcXxXcXmXMXbXjX-XF.[ l r l ] F.-XhXcXmXnXcXxXxXxX",
"qXqXqXeXyXuXeX6X{.x.Q f w f Q x.{.6XeXuXyXeXwXwXwXeXeXeXeXeXwXwXwXqXqXqXqXqXeXyXuXeX6X{.x.Q f w f Q x.{.6XeXuXyXeXwXeXuXsXyX7X|.v.^ h w f Q x.{.6XeXuXyXeXqXqXqX",
"$X$X$X%X=X=X&X|.L.4.L a 9 a L 4.L.|.&X=X=X%X$X%X%X&X&X*X&X&X%X%X$X$X$X$X$X$X%X=X=X&X|.L.4.L a 9 a L 4.L.|.&X=X=X%X$X&X;X;X=XXXI.9.I p 0 a L 4.L.|.&X=X=X%X$X$X$X",
"Q.Q.Q.Q.~.^.Q.K.h.| B t 5 t B | h.K.Q.^.~.Q.Q.Q.Q.Q.Q.Q.Q.Q.Q.Q.Q.Q.T.Q.Q.Q.Q.~.^.Q.K.h.| B t 5 t B | h.K.Q.^.~.Q.Q.Q.^./.!.K.h. .B t 5 t B | h.K.Q.^.~.Q.Q.Q.Q.",
"C.C.C.C.Z.Z.C.k.>.W c w 3 w c W >.k.C.Z.Z.C.n.n.b.c.x.x.x.c.b.n.n.C.C.C.C.C.C.Z.Z.C.k.>.W c w 3 w c W >.k.C.Z.Z.C.n.m.C.C.c.s.=.T l q 3 w c W >.k.C.Z.Z.C.C.C.C.",
"j.j.j.j.l.c.j.y.*.Y k q 3 q k Y *.y.k.c.c.j.f.a.r.,.:.=.:.,.r.a.f.j.j.j.j.j.j.l.c.j.y.*.Y k q 3 q k Y *.y.k.c.c.j.f.s.y.e.>.O.W B i 5 1 q z Y *.y.j.c.l.j.j.j.j.",
"g.g.g.j.k.l.j.t.#.Y k q 3 q k Y #.t.j.c.c.j.s.e.=.{ ~ E ~ { =.e.s.j.j.j.j.g.j.k.l.j.t.#.Y k q 3 q k Y #.t.j.c.c.j.s.r.>.o.( I B d 0 1 1 q z T #.t.j.l.k.j.g.g.g.",
"j.j.j.k.c.c.k.a.*.Y z q 3 q z Y *.a.l.b.b.l.s.6.X.T Z M Z T X.6.s.k.c.l.j.j.k.c.c.k.a.*.Y z q 3 q z Y *.a.l.b.b.l.s.6.O.W F z a 9 1 - < w z R =.a.k.c.c.k.j.j.j.",
"j.j.j.k.c.c.k.a.*.Y z q 3 q z Y *.a.c.n.n.c.a.:.( Z h a h Z ( :.a.k.c.c.k.j.k.c.c.k.a.*.Y z q 3 q z Y *.a.c.n.n.c.a.>._ G j e 4 - * * , w v R =.a.k.c.c.k.j.j.j.",
"a.a.a.a.s.f.a.8.o.I h 0 2 0 h I o.8.s.j.j.s.8.O.Y z e 9 e z Y O.8.a.f.s.a.a.a.s.f.a.8.o.I h 0 2 0 h I o.8.s.j.j.s.8.+.R n y 2 * $ # % - q z Y O.8.a.f.s.a.a.a.a.",
"#.#.#.*.;.:.=.O.~ B a 4 , 4 i B E X.=.>.>.;.O.~ B i 3 - 3 u B E X.*.=.=.*.#.*.=.=.*.X.W B i 4 , 4 i B W X.=.>.>.;.O.~ Z s 4 * @ o o @ * 5 s Z W X.*.=.=.*.#.#.#.",
"K I I U T E R Y Z h q - * - 8 s m G Y E ~ E U Z g 9 = $ * 4 a m G I Y U I I I U Y I G m s 9 - & - 8 s m G Y E ~ E U Z h 0 = + .     X # - 0 g m G I U U I I I I ",
"g g g h z z c z d w 1 * # % - 6 y s h z v v z s q < % + # = 4 r s g h g g g g g h g s y 8 > & # % - 7 y s h z v v z d w 1 % o .     X + & < 9 y s g g g g g g g ",
"9 9 9 0 q w w q 8 2 - * & & = < 4 9 0 w w w q 8 1 - & % & = < 4 8 9 0 0 9 9 9 0 0 9 9 4 < = & % & = < 4 9 0 w w w q 8 2 - & # @ @ @ # $ & - 1 4 9 9 0 0 9 9 9 9 ",
"q q 0 9 4 2 < , , < 1 3 4 5 8 9 0 0 9 4 2 < , , < 1 3 4 5 8 9 0 0 q q q q q q q q q 0 0 9 5 5 4 5 8 9 0 0 9 4 2 < , , < 1 3 4 4 4 4 4 4 5 8 9 0 0 q q q q q q q ",
"C V b j y 8 ; = ; 8 u j M V A Z V b j y 8 , = , 8 i l M V C V V N N N N N N N N N N N N N V V V V V V V b j y 8 , = , 8 i k M V C C V V V V N N N N N N N N N N ",
"w.7.-.' S p 3 - 3 p S ] 2.q.p.p.0.<.' S p 4 : 5 d H [ 2.q.w.q.7.5.5.5.5.5.5.5.5.5.5.5.7.7.0.0.0.q.q.q.7.<.' S p 4 : 5 d H [ 2.q.p.w.q.0.0.7.7.7.5.5.5.5.5.5.5.5.",
"OX{.W.N.$.A e 1 e C $.V.). X@X@X}.(.N.$.C t 4 t A &.V.).}..X X{.'.'.'.'.'.'.'.'.'.'.'.'.{.{.{.{.}. X.X{.(.N.$.C t 4 t A &.V.).}.OXOX}.{.{.{.{.'.'.'.'.'.'.'.'.'.",
"lXpX7X XM./ f q f Q v..X8XaXlXlXaX8X Xv.! f w f ^ v..X8XpXfXaXyXtXtXtXtXtXtXtXtXtXtXtXtXtXtXtXtXpXaXfXpX8X Xv.! f w f ^ v..X8XpXhXfXpXtXtXtXtXtXtXtXtXtXtXtXtXtX",
"ZXMXlX1XY.%.N a M ..P.1XlXBXAXAXBXlX1XH.} x t x } H.1XlXMXVXBXmXnXnXnXnXnXnXnXnXnXnXnXnXnXnXnXnXmXBXVXMXlX1XH.} x t x } H.1XlXMXVXBXmXnXnXnXnXnXnXnXnXnXnXnXnXnX",
"CXmXlX5XE.5.P v L 3.R.5XlXMXZXZXMXkX,XG.} x r x } G.,XkXnXBXNXnXcXcXcXcXcXcXcXcXcXcXcXcXcXcXcXcXnXNXBXnXkX,XG.} x r x } G.,XkXnXBXNXnXbXbXbXvXvXcXcXcXcXcXcXcXcX",
"kXdX0X*XT.u.) I / 9.I.*X0XdXzXzXdX9XXXM./ h e h / M.XX9XdXjXgXsXuXuXuXuXuXuXuXuXuXuXuXuXuXuXuXuXsXgXjXdX9XXXM./ h e h / M.XX9XdXkXjXgXsXsXsXiXuXuXuXuXuXuXuXuXuX",
">X;X#X[.J.s.*.{ #.i.D.].#X;X3X3X;XoXU.9.I p 0 p I 9.U.oX;X>X:X;X=X=X=X=X=X=X=X=X=X=X=X=X=X=X=X=X;X:X>X;XoXU.9.I p 0 p I 9.U.oX;X2X<X:X;X;X;X;X=X=X=X=X=X=X=X=X=X",
"~.!.U.J.C.d.8.,.8.s.m.J.T.~./.`.~.K.h. .B t 5 t B  .h.K.~./.^.!.Q.Q.Q.Q.Q.Q.Q.Q.Q.Q.Q.Q.Q.Q.Q.Q.!.^./.~.K.h. .B t 5 t B  .h.K.~././.~.!.!.!.Q.Q.Q.Q.Q.Q.Q.Q.Q.Q.",
"C.C.n.b.x.h.s.a.s.h.k.b.n.C.Z.Z.C.k.>.W c w 3 w c W >.k.C.Z.Z.C.C.C.C.C.C.C.C.C.C.C.C.C.C.C.C.C.C.Z.Z.C.k.>.W c w 3 w c W >.j.C.C.n.c.x.x.c.b.n.n.C.C.C.C.C.C.C.",
"j.j.j.j.j.k.l.x.l.k.j.j.j.j.l.c.j.y.*.Y k q 3 q k Y *.y.j.c.l.j.j.j.j.j.j.j.j.j.j.j.j.j.j.j.j.j.j.l.c.j.y.*.Y k q 3 q z T *.t.s.y.8.>.=.:.,.r.a.f.j.j.j.j.j.j.j.",
"f.g.j.j.k.c.b.b.b.c.l.j.j.j.k.k.j.t.#.Y k q 3 q k Y #.t.j.l.k.j.g.g.g.g.g.g.g.g.g.g.g.g.g.g.g.g.j.k.l.j.t.#.Y k q 3 q z T *.r.r.>.X.( E ~ { =.e.s.j.j.j.j.g.g.g.",
"j.j.j.k.c.b.b.n.b.b.c.k.j.k.c.c.k.a.*.Y z q 3 q z Y *.a.k.c.c.k.j.j.j.j.j.j.j.j.j.j.j.j.j.j.j.j.k.c.c.k.a.*.Y z q 3 w z R =.r.8.O.W D M Z T X.6.s.k.c.l.j.j.j.j.",
"j.j.j.j.k.k.l.c.x.k.k.j.j.k.c.c.k.a.*.Y z q 3 q z Y *.a.k.c.c.k.j.j.j.j.j.j.j.j.j.j.j.j.j.j.j.j.k.c.c.k.a.*.Y z q 3 w z E =.e.>.` G j a h Z ( :.a.k.c.c.k.j.j.j.",
"a.a.a.a.a.a.a.a.a.a.a.a.a.a.s.f.a.8.o.I h 0 2 0 h I o.8.a.f.s.a.a.a.a.a.a.a.a.a.a.a.a.a.a.a.a.a.a.s.f.a.8.o.I h 0 2 q z Y O.>.+.R n t 9 e z Y O.8.a.d.s.a.a.a.a.",
"#.#.#.#.#.#.#.#.#.#.#.#.#.*.=.=.*.X.W B i 4 , 4 i B W X.*.=.=.*.#.*.*.*.=.=.=.*.*.*.#.#.#.#.#.#.*.=.=.*.X.W B i 4 , 4 s Z ~ ` W Z a 4 - 3 i B ~ O.;.:.:.;.=.=.=.",
"I I I I I I I I I I I I I I U Y I G m s 9 - & - 9 s m G I U I I I I Y T R R R T Y I I I K K I I I U Y I G m s 9 - & - 0 g M Z m s 8 * $ = 9 g Z Y W ~ ~ E E E E ",
"g g g g g g g g g g g g g g g h g s y 8 > & # & > 8 y s g g g g g h j z z c z z j h g g g g g g g g h g s y 8 > & # & < 9 y a y 8 - # + % < q s z n m n n v v v ",
"9 9 9 9 9 9 9 9 9 9 9 9 9 9 0 0 9 9 4 < = & % & = < 4 9 9 0 0 9 9 0 0 q w w w q 0 0 9 9 9 9 9 9 9 0 0 9 9 4 < = & % & - 1 4 6 4 < = & % & - 1 8 q w e e w w w w ",
"q q q q q q q q q q q q q q q q q 0 0 9 5 5 4 5 5 9 0 0 q q q q 0 8 4 2 < , < 2 4 8 0 q q q q q q q q q 0 0 9 5 5 4 5 8 9 0 0 0 9 8 5 4 3 1 < , - - - - - - - - ",
"N N N N N N N N N N N N N N N N N N N N V V V V V N N N N V V N b j y 8 , = , 8 y j b N V V N N N N N N N N N V V V V V N N N V V C V M l i 0 < * $ # # # $ $ $ ",
"5.5.5.5.5.5.5.5.5.5.5.5.5.5.5.5.5.5.7.7.0.0.0.0.0.7.7.5.7.0.0.7.-.' S p 4 : 4 p S ' -.7.0.0.7.5.5.5.5.5.5.7.7.0.0.0.0.7.7.7.5.7.q.w.q.2.} P j 8 * @ o o o O O o ",
"'.'.'.'.'.'.'.'.'.'.'.'.'.'.'.'.'.'.'.{.{.{.{.{.{.{.'.'.{.}.}.{.W.N.$.Z t 4 t Z $.N.W.{.}.}.{.'.'.'.'.'.'.'.{.{.{.{.{.{.{.'.'.{. X.X}.).A.1.L u - @ X X o O O o ",
"tXtXtXtXtXtXtXtXtXtXtXtXtXtXtXtXtXtXtXtXtXtXtXtXtXtXtXtXyXaXfXpX8X Xv.! f w f ! v. X8XpXfXaXyXtXtXtXtXtXtXtXtXtXtXtXtXtXtXtXtXyXaXfXpX8XOXV.] j 1 # o o # $ $ $ ",
"nXnXnXnXnXnXnXnXnXnXnXnXnXnXnXnXnXnXnXnXnXnXnXnXnXnXnXnXmXBXVXMXlX1XH.} x t x } H.1XlXMXVXBXmXnXnXnXnXnXnXnXnXnXnXnXnXnXnXnXnXmXBXVXMXlX4XY.%.b 3 % @ $ = - - - ",
"cXcXcXcXcXcXcXcXcXcXcXcXcXvXvXbXbXbXbXbXvXvXcXcXcXcXcXcXnXNXBXnXkX,XG.} x r x } G.,XkXnXBXNXnXcXcXcXcXcXcXcXcXcXcXcXcXcXcXcXcXnXNXBXnXkX1XI.$.v 4 * * , 5 q w e ",
"uXuXuXuXuXuXuXuXuXuXuXuXuXuXiXsXsXsXsXsXiXuXuXuXuXuXuXuXsXgXjXdX9XXXM./ h e h / M.XX9XdXjXgXsXuXuXuXuXuXuXuXuXuXuXuXuXuXuXuXuXsXgXjXdX9X+XB.] k 4 - 1 w d z n m ",
"=X=X=X=X=X=X=X=X=X=X=X=X=X=X;X;X;X;X;X;X;X=X=X=X=X=X=X=X;X:X>X;XoXU.9.I p 0 p I 9.U.oX;X>X:X;X=X=X=X=X=X=X=X=X=X=X=X=X=X=X=X=X;X:X>X;XoXT.q.T d 4 2 w h Z Y W ( ",
"Q.Q.Q.Q.Q.Q.Q.Q.Q.Q.Q.Q.Q.Q.Q.!.!.!.!.!.Q.Q.Q.Q.Q.Q.Q.Q.!.^./.~.K.h. .B t 5 t B  .h.K.~./.^.!.Q.Q.Q.Q.Q.Q.Q.Q.Q.Q.Q.Q.Q.Q.Q.Q.!.^./.~.K.z.o.Z y 3 8 s Z ~ O.;.>.",
"C.C.C.C.C.C.C.C.C.C.C.C.n.n.b.c.x.x.x.c.b.n.n.C.C.C.C.C.C.Z.Z.C.k.>.W c w 3 w c W >.k.C.Z.Z.C.C.C.C.C.C.C.C.C.C.C.C.C.C.C.C.C.C.Z.Z.C.k.>.W v w 3 0 k I o.8.s.j.",
"j.j.j.j.j.j.j.j.j.j.j.j.f.a.r.,.:.=.:.,.r.a.f.j.j.j.j.j.j.l.c.j.y.*.Y k q 3 q k Y *.y.j.c.l.j.j.j.j.j.j.j.j.j.j.j.j.j.j.j.j.j.j.l.c.j.y.*.Y k q 3 w c E ;.s.b.C.",
"g.g.g.g.g.g.g.g.j.j.j.j.s.e.=.{ ~ E ~ { =.e.s.j.j.j.j.g.j.k.l.j.t.#.Y k q 3 q k Y #.t.j.l.k.j.g.g.g.g.g.g.g.g.g.g.g.g.g.g.g.g.j.k.l.j.t.#.Y k 0 3 e n ~ >.j.C.S.",
"j.j.j.j.j.j.j.j.j.l.c.k.s.6.X.T Z M Z T X.6.s.k.c.l.j.j.k.c.c.k.a.*.Y z q 3 q z Y *.a.k.c.c.k.j.j.j.j.j.j.j.j.j.j.j.j.j.j.j.j.k.c.c.k.a.*.Y k q 3 e n ~ >.j.C.S.",
"j.j.j.j.j.j.j.j.k.c.c.k.a.:.( Z h a h Z ( :.a.k.c.c.k.j.k.c.c.k.a.*.Y z q 3 q z Y *.a.k.c.c.k.j.j.j.j.j.j.j.j.j.j.j.j.j.j.j.j.k.c.c.k.a.*.Y l q 3 w c E ;.s.b.C.",
"a.a.a.a.a.a.a.a.a.s.f.a.8.O.Y z e 9 e z Y O.8.a.f.s.a.a.a.s.f.a.8.o.I h 0 2 0 h I o.8.a.f.s.a.a.a.a.a.a.a.a.a.a.a.a.a.a.a.a.a.a.s.f.a.8.o.I h 0 2 q k I o.8.s.j.",
"#.#.#.#.#.#.#.#.*.;.:.=.O.~ B i 3 - 3 u B E X.*.=.=.*.#.*.=.=.*.X.W B i 4 , 4 i B W X.*.=.=.*.#.*.*.*.=.=.=.*.*.*.#.#.#.#.#.#.*.=.=.*.X.W B i 4 , 4 a B W X.*.:.",
"I I I I K K I I U T E E U Z g 9 = $ * 4 a m G I Y U I I I U Y I G m s 9 - & - 9 s m G I U I I I I Y T R R R T Y I I I K K I I I U Y I G m s 9 - & - 9 d m G I Y ",
"g g g g g g g g h z z c z s q < % + # = 4 r s g h g g g g g h g s y 8 > & # & > 8 y s g g g g g h j z z c z z j h g g g g g g g g h g s y 8 > & # & , 9 y s g h ",
"9 9 9 9 9 9 9 9 0 q w w q 8 1 - & % & = < 4 8 9 0 0 9 9 9 0 0 9 9 4 < = & % & = < 4 9 9 0 0 9 9 0 0 q w w w q 0 0 9 9 9 9 9 9 9 0 0 9 9 4 < = & % & - < 4 8 0 0 ",
"q q q q q q q 0 9 4 2 < , , < 1 3 4 5 8 9 0 0 q q q q q q q q q 0 0 9 5 5 4 5 5 9 0 0 q q q q 0 8 4 2 < , < 2 4 8 0 q q q q q q q q q 0 0 9 5 5 4 5 8 9 0 0 q q ",
"N N N N V V N b j y 8 , = , 8 i l M V C V V N N N N N N N N N N N N N V V V V V N N N N V V N b j y 8 , = , 8 y j b N V V N N N N N N N N N V V V V V N N N N N ",
"5.5.5.7.0.0.7.-.' S p 4 : 5 d H [ 2.q.w.q.7.5.5.5.5.5.5.5.5.5.5.5.7.7.0.0.0.0.0.7.7.5.7.0.0.7.-.' S p 4 : 4 p S ' -.7.0.0.7.5.5.5.5.5.5.7.7.0.0.0.0.0.7.7.5.5.5.",
"'.'.'.{.}.}.{.W.N.$.C t 4 t A &.V.).}..X X{.'.'.'.'.'.'.'.'.'.'.'.'.{.{.{.{.{.{.{.'.'.{.}.}.{.W.N.$.Z t 4 t Z $.N.W.{.}.}.{.'.'.'.'.'.'.'.{.{.{.{.{.{.{.'.'.'.'.",
"tXtXtXyXaXfXpX8X Xv.! f w f ^ v..X8XpXfXaXyXtXtXtXtXtXtXtXtXtXtXtXtXtXtXtXtXtXtXtXtXtXyXaXfXpX8X Xv.! f w f ! v. X8XpXfXaXyXtXtXtXtXtXtXtXtXtXtXtXtXtXtXtXtXtXtX",
"nXnXnXmXBXVXMXlX1XH.} x t x } H.1XlXMXVXBXmXnXnXnXnXnXnXnXnXnXnXnXnXnXnXnXnXnXnXnXnXnXmXBXVXMXlX1XH.} x t x } H.1XlXMXVXBXmXnXnXnXnXnXnXnXnXnXnXnXnXnXnXnXnXnXnX",
"cXcXcXnXNXBXnXkX,XG.} x r x } G.,XkXnXBXNXnXcXcXcXcXcXcXcXcXcXcXcXcXcXcXcXcXvXvXbXbXbXnXNXBXnXkX,XG.} x r x } G.,XkXnXBXNXnXbXbXbXvXvXcXcXcXcXcXcXcXcXcXcXcXcXcX",
"uXuXuXsXgXjXdX9XXXM./ h e h / M.XX9XdXjXgXsXuXuXuXuXuXuXuXuXuXuXuXuXuXuXuXuXuXiXsXsXsXgXjXkXdX9XXXM./ h e h / M.XX9XdXkXjXgXsXsXsXiXuXuXuXuXuXuXuXuXuXuXuXuXuXuX",
"=X=X=X;X:X>X;XoXU.9.I p 0 p I 9.U.oX;X>X:X;X=X=X=X=X=X=X=X=X=X=X=X=X=X=X=X=X=X;X;X;X;X:X<X2X;XoXU.9.I p 0 p I 9.U.oX;X2X<X:X;X;X;X;X=X=X=X=X=X=X=X=X=X=X=X=X=X=X",
"Q.Q.Q.!.^./.~.K.h. .B t 5 t B  .h.K.~./.^.!.Q.Q.Q.Q.Q.Q.Q.Q.Q.Q.Q.Q.Q.Q.Q.Q.Q.Q.!.!.!.~././.~.K.h. .B t 5 t B  .h.K.~././.~.!.!.!.Q.Q.Q.Q.Q.Q.Q.Q.Q.Q.Q.Q.Q.Q.Q.",
"C.C.C.C.Z.Z.C.k.>.W c w 3 w c W >.k.C.Z.Z.C.C.C.C.C.C.C.C.C.C.C.C.C.C.C.C.n.n.b.c.x.x.c.n.C.C.j.>.W c w 3 w c W >.j.C.C.n.c.x.x.c.b.n.n.C.C.C.C.C.C.C.C.C.C.C.C.",
"j.j.j.j.l.c.j.y.*.Y k q 3 q k Y *.y.j.c.l.j.j.j.j.j.j.j.j.j.j.j.j.j.j.j.j.f.a.r.,.:.=.>.8.y.s.t.*.T z q 3 q z T *.t.s.y.8.>.=.:.,.r.a.f.j.j.j.j.j.j.j.j.j.j.j.j.",
"g.g.g.j.k.l.j.t.#.Y k q 3 q k Y #.t.j.l.k.j.g.g.g.g.g.g.g.g.g.g.g.j.j.j.j.s.e.=.{ ~ E ( X.>.r.r.*.T z q 3 q z T *.r.r.>.X.( E ~ { =.e.s.j.j.j.j.g.g.g.g.g.g.g.g.",
"j.j.j.k.c.c.k.a.*.Y z q 3 q z Y *.a.k.c.c.k.j.j.j.j.j.j.j.j.j.j.j.j.l.c.k.s.6.X.T Z M D W O.8.r.=.R z w 3 w z R =.r.8.O.W D M Z T X.6.s.k.c.l.j.j.j.j.j.j.j.j.j.",
"j.j.j.k.c.c.k.a.*.Y z q 3 q z Y *.a.k.c.c.k.j.j.j.j.j.j.j.j.j.j.j.k.c.c.k.a.:.( Z h a j G ` >.e.=.E z w 3 w z E =.e.>.` G j a h Z ( :.a.k.c.c.k.j.j.j.j.j.j.j.j.",
"a.a.a.a.s.f.a.8.o.I h 0 2 0 h I o.8.a.f.s.a.a.a.a.a.a.a.a.a.a.a.a.a.s.f.a.8.O.Y z e 9 t n R +.>.O.Y z q 2 q z Y O.>.+.R n t 9 e z Y O.8.a.f.s.a.a.a.a.a.a.a.a.a.",
"*.*.*.=.;.:.=.o.~ Z s 7 1 7 s Z ~ o.=.:.;.=.*.*.*.*.*.*.*.*.*.*.*.=.;.:.=.o.~ B a 4 < 6 d D ~ { ( F g 8 1 8 g F ( { ~ D d 6 < 4 a B ~ o.=.:.;.=.*.*.*.*.*.*.*.*.",
"T T T R E E R I Z j e 3 , 3 e j Z I R E E R T T T T T T T T T T T R E E R I Z h w < = < e k Z J D z t 3 , 3 t z D J Z k e < = < w h Z I R E E R T T T T T T T T ",
"z z z c v v c z d e 5 , - , 5 e d z c v v c z z z z z z z z z z z c v v c l d e 3 - * - 4 r d h g y 8 < - < 8 y g h d r 4 - * - 3 e d l c v v c z z z z z z z z ",
"w w w w w e w q 8 3 , = * = , 3 8 q w e w w w w w w w w w w w w w w w e w q 8 3 ; = * = , 3 9 0 9 4 < = * = < 4 9 0 9 3 , = * = ; 3 8 q w e w w w w w w w w w w ",
"- - - - ; ; - - - = * * & * * = - - - ; ; - - - - - - - - - - - - - ; ; - - - = * * & * * = - - - = * * & * * = - - - = * * & * * = - - - ; ; - - - - - - - - - ",
"% % % % % % % % % % & & & & & % % % % % % % % % % % % % % % % % % % % % % % % % & & & & & % % % % % & & & & & % % % % % & & & & & % % % % % % % % % % % % % % % ",
"+ + + + + + + @ @ # $ % & % $ # @ @ + + + + + + + + + + + + + + + + + + + @ @ # $ % & % $ # @ @ @ # $ % & % $ # @ @ @ # $ % & % $ # @ @ + + + + + + + + + + + + "
};
